<svg width="155" height="154" viewBox="0 0 155 154" fill="none" xmlns="http://www.w3.org/2000/svg">
<path fill-rule="evenodd" clip-rule="evenodd" d="M61.2935 153.303C63.8001 147.944 66.5976 143.321 70.1725 140.599V122.716C63.915 118.846 58.0789 110.536 53.7667 100.474C50.0381 100.514 46.8607 99.7812 44.2345 98.3961C39.6629 96.0334 36.7773 91.475 36.1288 86.4563C35.2858 79.5066 38.6254 72.5325 44.8181 68.907C44.6884 69.3958 44.6235 69.9172 44.6235 70.4753C44.6235 72.2474 45.3693 73.6976 46.1474 74.6101C46.8931 75.5226 47.7361 76.1296 48.6764 76.6795C50.5569 77.7794 52.9237 78.6023 55.7769 79.3029C61.4508 80.7124 69.0701 81.5394 77.5 81.5394C85.9299 81.5394 93.5492 80.7124 99.2231 79.3029C102.076 78.6023 104.443 77.7794 106.324 76.6795C107.264 76.1296 108.107 75.5226 108.853 74.6101C109.631 73.6976 110.376 72.2474 110.376 70.4753C110.376 69.9172 110.312 69.3958 110.182 68.907C116.375 72.5325 119.714 79.5066 118.871 86.4563C118.223 91.475 115.337 96.0334 110.766 98.3961C108.139 99.7812 104.962 100.514 101.233 100.474C96.9211 110.536 91.085 118.846 84.8275 122.716V140.599C88.388 143.326 91.1955 147.944 93.7038 153.303C128.727 145.853 155 114.745 155 77.5C155 34.6979 120.302 0 77.5 0C34.6979 0 0 34.6979 0 77.5C0 114.744 26.2714 145.852 61.2935 153.303ZM77.6761 11.0007C77.3983 10.999 77.1205 11.0004 76.8427 11.0051C75.8229 11.0257 74.8027 11.0938 73.7885 11.2022C73.839 11.2266 73.871 11.2492 73.8598 11.2665L70.0616 17.0503L81.261 24.3007L81.242 24.3282L91.9441 24.3693L95.2495 17.6691L90.9829 13.668C88.5781 12.6702 86.0628 11.9429 83.4865 11.5004C81.5696 11.1719 79.6227 11.0076 77.6761 11.0007ZM67.9593 18.9843L56.7979 24.3784L54.7048 38.8105L62.4852 43.7466L76.7816 37.3761L79.0357 26.1568L67.9593 18.9843ZM97.7121 19.0348L94.492 25.561L100.061 36.226L109.466 41.9317L111.18 38.8105C111.214 38.8315 111.248 38.8696 111.279 38.9205C111.162 38.194 111.02 37.4696 110.853 36.7526C109.876 32.5597 108.036 28.5454 105.474 25.0244C104.099 23.1366 102.515 21.3905 100.762 19.8181L97.7121 19.0348ZM51.8495 22.4079C50.803 23.5878 49.8406 24.8365 48.9797 26.1477C46.6043 29.7648 44.9732 33.8463 44.2159 38.0727C43.8472 40.135 43.6838 42.2269 43.728 44.3194L46.7966 45.0665L51.8017 39.1269L53.9944 24.0117L51.8495 22.4079ZM99.237 38.9573L90.7794 45.5202L90.2536 60.3463L96.2583 63.4446L107.955 56.1712L108.623 44.622L108.608 44.645L99.237 38.9573ZM77.8942 39.8968L63.6452 46.2488L63.4606 57.4865L76.9706 65.9011L87.417 60.5573L87.9379 45.6349L77.8942 39.8968ZM43.9174 47.193C44.0553 48.4302 44.2644 49.6592 44.5472 50.8732C45.5238 55.0662 47.3688 59.0802 49.9315 62.6011C50.5184 63.4078 51.1468 64.1858 51.8066 64.9386L50.3861 57.8761L50.4049 57.8714L46.3089 47.775L43.9174 47.193ZM61.6754 59.636L53.8665 60.8322L55.4008 68.4721C56.7001 69.5711 58.0838 70.5731 59.5398 71.4694C61.759 72.8327 64.1328 73.9445 66.6145 74.783L76.1044 72.7752L75.4462 68.2106L61.6754 59.636ZM107.504 59.7096C107.163 60.311 106.805 60.9039 106.425 61.4826C104.05 65.1 100.923 68.2596 97.2905 70.7176C95.6485 71.8287 93.8994 72.7965 92.0769 73.6097L91.4089 72.7069L97.7733 65.759L107.504 59.7096ZM88.8995 74.0313L76.7859 75.4429L72.8508 76.2723C76.9412 76.8589 81.1423 76.7187 85.1725 75.8597C86.5988 75.5558 88.0038 75.1572 89.3776 74.6774L88.8995 74.0313Z" fill="white"/>
<path d="M50.9459 92.9619C49.0654 87.328 47.7037 81.3927 46.958 75.5511C42.97 77.9301 41.511 82.0934 41.9 85.3238C42.1918 87.7191 43.4239 90.0533 46.4716 91.642C47.6713 92.2653 49.1303 92.7378 50.9459 92.9619Z" fill="white"/>
<path d="M113.1 85.3238C113.489 82.0934 112.03 77.9301 108.042 75.5511C107.296 81.3927 105.935 87.328 104.054 92.9619C105.87 92.7378 107.329 92.2653 108.528 91.642C111.576 90.0533 112.808 87.7191 113.1 85.3238Z" fill="white"/>
</svg>
