<svg width="348" height="54" viewBox="0 0 348 54" fill="none" xmlns="http://www.w3.org/2000/svg">
<path d="M80.0343 0.800233C79.9408 0.799638 79.8472 0.800126 79.7537 0.801713C79.4102 0.808625 79.0667 0.831589 78.7252 0.868088C78.7422 0.876282 78.7529 0.883897 78.7492 0.889725L77.4701 2.83742L81.2415 5.27895L81.2351 5.28822L84.839 5.30206L85.9521 3.04579L84.5153 1.69843C83.7055 1.36243 82.8585 1.11751 81.991 0.968491C81.3454 0.857865 80.6899 0.802552 80.0343 0.800233Z" fill="black"/>
<path d="M76.7622 3.48868L73.0036 5.30512L72.2988 10.1651L74.9188 11.8273L79.7331 9.68204L80.4921 5.90398L76.7622 3.48868Z" fill="black"/>
<path d="M86.7814 3.50568L85.697 5.70337L87.5723 9.29475L90.7393 11.2161L91.3165 10.1651C91.3189 10.1666 91.3214 10.1683 91.3237 10.1703C91.3328 10.1777 91.3417 10.1886 91.35 10.2021C91.3107 9.95747 91.2627 9.71355 91.2066 9.47211C90.8777 8.06014 90.258 6.70833 89.3951 5.52266C88.9323 4.88696 88.3987 4.29897 87.8084 3.76944L86.7814 3.50568Z" fill="black"/>
<path d="M71.3373 4.64156C70.9848 5.03888 70.6608 5.4594 70.3709 5.90091C69.571 7.11899 69.0217 8.49341 68.7667 9.91663C68.6425 10.6111 68.5875 11.3155 68.6024 12.0202L69.6357 12.2718L71.3212 10.2716L72.0596 5.18166L71.3373 4.64156Z" fill="black"/>
<path d="M87.2949 10.2145L84.4468 12.4246L84.2697 17.4172L86.2918 18.4605L90.2306 16.0113L90.4554 12.1221L90.4506 12.1298L87.2949 10.2145Z" fill="black"/>
<path d="M80.1078 10.5309L75.3094 12.6699L75.2473 16.4542L79.7967 19.2878L83.3145 17.4883L83.4899 12.4632L80.1078 10.5309Z" fill="black"/>
<path d="M68.6662 12.9879C68.7126 13.4045 68.783 13.8184 68.8782 14.2272C69.2071 15.6391 69.8284 16.9908 70.6914 18.1765C70.889 18.4482 71.1006 18.7101 71.3228 18.9636L70.8445 16.5854L70.8508 16.5838L69.4715 13.1838L68.6662 12.9879Z" fill="black"/>
<path d="M74.6461 17.178L72.0165 17.5808L72.5332 20.1536C72.9707 20.5236 73.4366 20.861 73.927 21.1629C74.6743 21.6219 75.4736 21.9964 76.3093 22.2787L79.5051 21.6026L79.2834 20.0655L74.6461 17.178Z" fill="black"/>
<path d="M90.079 17.2027L86.802 19.2399L84.6588 21.5796L84.8837 21.8836C85.4974 21.6098 86.0865 21.2839 86.6394 20.9097C87.8626 20.082 88.9155 19.018 89.7154 17.7999C89.8435 17.6049 89.9639 17.4053 90.079 17.2027Z" fill="black"/>
<path d="M83.8138 22.0256L79.7345 22.5009L78.4094 22.7802C79.7868 22.9778 81.2015 22.9306 82.5587 22.6413C83.039 22.539 83.5121 22.4047 83.9747 22.2431L83.8138 22.0256Z" fill="black"/>
<path fill-rule="evenodd" clip-rule="evenodd" d="M0 6.57999V52.36H8.12V35.56H14.7C18.0133 35.56 20.9767 35.0233 23.59 33.95C26.25 32.8767 28.3267 31.2433 29.82 29.05C31.36 26.8567 32.13 24.08 32.13 20.72C32.13 17.1733 31.36 14.3733 29.82 12.32C28.28 10.2666 26.18 8.79665 23.52 7.90999C20.86 7.02332 17.8267 6.57999 14.42 6.57999H0ZM14.07 29.05H8.12V13.09H13.79C17.1967 13.09 19.7633 13.65 21.49 14.77C23.2633 15.8433 24.15 17.8267 24.15 20.72C24.15 23.4733 23.31 25.55 21.63 26.95C19.9967 28.35 17.4767 29.05 14.07 29.05Z" fill="black"/>
<path d="M40.0422 17.99V52.36H48.0922V31.36C49.1655 28.7467 50.4489 26.9267 51.9422 25.9C53.4355 24.8267 54.8589 24.29 56.2122 24.29C56.9589 24.29 57.5655 24.3367 58.0322 24.43C58.4989 24.4767 59.0122 24.57 59.5722 24.71L61.1822 17.85C60.6689 17.57 60.1089 17.3833 59.5022 17.29C58.8955 17.1967 58.1488 17.15 57.2622 17.15C55.3955 17.15 53.5989 17.7567 51.8722 18.97C50.1922 20.1367 48.7455 21.84 47.5322 24.08H47.2522L46.6922 17.99H40.0422Z" fill="black"/>
<path d="M100.618 52.36V17.99H107.268L107.828 22.68H108.108C109.555 21.14 111.118 19.8333 112.798 18.76C114.525 17.6867 116.462 17.15 118.608 17.15C121.175 17.15 123.205 17.6867 124.698 18.76C126.192 19.8333 127.335 21.35 128.128 23.31C129.762 21.5367 131.465 20.0667 133.238 18.9C135.012 17.7333 136.995 17.15 139.188 17.15C142.828 17.15 145.512 18.34 147.238 20.72C148.965 23.1 149.828 26.46 149.828 30.8V52.36H141.708V31.85C141.708 29.0033 141.288 26.9967 140.448 25.83C139.608 24.6633 138.278 24.08 136.458 24.08C135.338 24.08 134.195 24.43 133.028 25.13C131.862 25.83 130.602 26.9033 129.248 28.35V52.36H121.198V31.85C121.198 29.0033 120.755 26.9967 119.868 25.83C119.028 24.6633 117.698 24.08 115.878 24.08C113.732 24.08 111.328 25.5033 108.668 28.35V52.36H100.618Z" fill="black"/>
<path fill-rule="evenodd" clip-rule="evenodd" d="M165.632 51.1C168.246 52.5 171.162 53.2 174.382 53.2C176.576 53.2 178.676 52.8733 180.682 52.22C182.736 51.5667 184.556 50.68 186.142 49.56L183.342 44.38C182.176 45.1266 180.916 45.71 179.562 46.13C178.256 46.55 176.856 46.76 175.362 46.76C173.589 46.76 171.932 46.3633 170.392 45.57C168.852 44.73 167.616 43.47 166.682 41.79C166.057 40.6332 165.641 39.2566 165.435 37.66H186.982C187.122 37.0067 187.216 36.33 187.262 35.63C187.356 34.93 187.402 34.2066 187.402 33.46C187.402 30.2867 186.866 27.4866 185.792 25.06C184.766 22.5867 183.202 20.65 181.102 19.25C179.002 17.85 176.389 17.15 173.262 17.15C170.556 17.15 167.989 17.8733 165.562 19.32C163.136 20.7667 161.152 22.8433 159.612 25.55C158.072 28.21 157.302 31.4067 157.302 35.14C157.302 38.9667 158.049 42.2333 159.542 44.94C161.036 47.6 163.066 49.6533 165.632 51.1ZM165.524 31.5C165.72 30.1828 166.037 29.0629 166.472 28.14C167.312 26.46 168.339 25.27 169.552 24.57C170.812 23.87 172.096 23.52 173.402 23.52C175.736 23.52 177.462 24.2433 178.582 25.69C179.702 27.09 180.262 29.0267 180.262 31.5H165.524Z" fill="black"/>
<path d="M204.681 53.2C202.301 53.2 199.944 52.7567 197.611 51.87C195.324 50.9833 193.341 49.7466 191.661 48.16L195.231 43.54C196.771 44.8 198.334 45.71 199.921 46.27C201.508 46.83 203.188 47.11 204.961 47.11C206.828 47.11 208.204 46.7133 209.091 45.92C209.978 45.1266 210.421 44.1467 210.421 42.98C210.421 42.0467 210.071 41.2533 209.371 40.6C208.718 39.9467 207.854 39.3867 206.781 38.92C205.708 38.4533 204.518 37.9867 203.211 37.52C201.531 36.9133 199.968 36.19 198.521 35.35C197.074 34.4633 195.884 33.39 194.951 32.13C194.064 30.8233 193.621 29.26 193.621 27.44C193.621 24.4066 194.741 21.9333 196.981 20.02C199.221 18.1067 202.254 17.15 206.081 17.15C208.414 17.15 210.561 17.5467 212.521 18.34C214.481 19.0867 216.161 20.0667 217.561 21.28L213.991 25.83C212.778 24.9433 211.541 24.29 210.281 23.87C209.021 23.45 207.691 23.24 206.291 23.24C204.564 23.24 203.281 23.6133 202.441 24.36C201.601 25.1067 201.181 25.9933 201.181 27.02C201.181 27.86 201.438 28.5833 201.951 29.19C202.511 29.75 203.304 30.2633 204.331 30.73C205.358 31.15 206.594 31.5933 208.041 32.06C209.814 32.6667 211.471 33.4133 213.011 34.3C214.551 35.14 215.764 36.2367 216.651 37.59C217.584 38.8967 218.051 40.5533 218.051 42.56C218.051 44.52 217.538 46.3167 216.511 47.95C215.484 49.5367 213.968 50.82 211.961 51.8C210.001 52.7333 207.574 53.2 204.681 53.2Z" fill="black"/>
<path d="M231.187 51.1C233.707 52.5 236.554 53.2 239.727 53.2C241.874 53.2 243.881 52.8033 245.747 52.01C247.661 51.2166 249.341 50.1667 250.787 48.86L247.497 43.89C246.564 44.6833 245.491 45.3367 244.277 45.85C243.111 46.3633 241.851 46.62 240.497 46.62C238.677 46.62 237.067 46.1533 235.667 45.22C234.314 44.24 233.241 42.91 232.447 41.23C231.654 39.5033 231.257 37.4967 231.257 35.21C231.257 32.8766 231.654 30.87 232.447 29.19C233.287 27.4633 234.407 26.1333 235.807 25.2C237.207 24.22 238.817 23.73 240.637 23.73C241.851 23.73 242.924 23.94 243.857 24.36C244.837 24.78 245.701 25.34 246.447 26.04L250.297 21C249.084 19.88 247.637 18.97 245.957 18.27C244.324 17.5233 242.411 17.15 240.217 17.15C237.184 17.15 234.337 17.8733 231.677 19.32C229.064 20.72 226.964 22.7733 225.377 25.48C223.791 28.14 222.997 31.3833 222.997 35.21C222.997 38.99 223.721 42.2333 225.167 44.94C226.661 47.6 228.667 49.6533 231.187 51.1Z" fill="black"/>
<path fill-rule="evenodd" clip-rule="evenodd" d="M269.932 53.2C267.086 53.2 264.426 52.5 261.952 51.1C259.479 49.6533 257.472 47.6 255.932 44.94C254.392 42.2333 253.622 38.99 253.622 35.21C253.622 31.3833 254.392 28.14 255.932 25.48C257.472 22.7733 259.479 20.72 261.952 19.32C264.426 17.8733 267.086 17.15 269.932 17.15C272.826 17.15 275.509 17.8733 277.982 19.32C280.456 20.72 282.462 22.7733 284.002 25.48C285.542 28.14 286.312 31.3833 286.312 35.21C286.312 38.99 285.542 42.2333 284.002 44.94C282.462 47.6 280.456 49.6533 277.982 51.1C275.509 52.5 272.826 53.2 269.932 53.2ZM269.932 46.62C271.612 46.62 273.059 46.1533 274.272 45.22C275.486 44.2867 276.419 42.9566 277.072 41.23C277.726 39.5033 278.052 37.4967 278.052 35.21C278.052 32.9233 277.726 30.9167 277.072 29.19C276.419 27.4633 275.486 26.1333 274.272 25.2C273.059 24.22 271.612 23.73 269.932 23.73C268.252 23.73 266.806 24.22 265.592 25.2C264.426 26.1333 263.516 27.4633 262.862 29.19C262.209 30.9167 261.882 32.9233 261.882 35.21C261.882 37.4967 262.209 39.5033 262.862 41.23C263.516 42.9566 264.426 44.2867 265.592 45.22C266.806 46.1533 268.252 46.62 269.932 46.62Z" fill="black"/>
<path d="M294.28 17.99V52.36H302.33V31.36C303.404 28.7467 304.687 26.9267 306.18 25.9C307.674 24.8267 309.097 24.29 310.45 24.29C311.197 24.29 311.804 24.3367 312.27 24.43C312.737 24.4767 313.25 24.57 313.81 24.71L315.42 17.85C314.907 17.57 314.347 17.3833 313.74 17.29C313.134 17.1967 312.387 17.15 311.5 17.15C309.634 17.15 307.837 17.7567 306.11 18.97C304.43 20.1367 302.984 21.84 301.77 24.08H301.49L300.93 17.99H294.28Z" fill="black"/>
<path fill-rule="evenodd" clip-rule="evenodd" d="M334.48 53.2C331.26 53.2 328.343 52.5 325.73 51.1C323.163 49.6533 321.133 47.6 319.64 44.94C318.147 42.2333 317.4 38.9667 317.4 35.14C317.4 31.4067 318.17 28.21 319.71 25.55C321.25 22.8433 323.233 20.7667 325.66 19.32C328.087 17.8733 330.653 17.15 333.36 17.15C336.487 17.15 339.1 17.85 341.2 19.25C343.3 20.65 344.863 22.5867 345.89 25.06C346.963 27.4866 347.5 30.2867 347.5 33.46C347.5 34.2066 347.453 34.93 347.36 35.63C347.313 36.33 347.22 37.0067 347.08 37.66H325.533C325.739 39.2566 326.155 40.6332 326.78 41.79C327.713 43.47 328.95 44.73 330.49 45.57C332.03 46.3633 333.687 46.76 335.46 46.76C336.953 46.76 338.353 46.55 339.66 46.13C341.013 45.71 342.273 45.1266 343.44 44.38L346.24 49.56C344.653 50.68 342.833 51.5667 340.78 52.22C338.773 52.8733 336.673 53.2 334.48 53.2ZM326.57 28.14C326.134 29.0629 325.818 30.1828 325.622 31.5H340.36C340.36 29.0267 339.8 27.09 338.68 25.69C337.56 24.2433 335.833 23.52 333.5 23.52C332.193 23.52 330.91 23.87 329.65 24.57C328.437 25.27 327.41 26.46 326.57 28.14Z" fill="black"/>
<path fill-rule="evenodd" clip-rule="evenodd" d="M66.0434 26.2097C65.7595 23.8694 66.8841 21.5209 68.9695 20.3C68.9258 20.4646 68.9039 20.6402 68.9039 20.8281C68.9039 21.4249 69.1551 21.9132 69.4171 22.2205C69.6682 22.5278 69.9521 22.7322 70.2687 22.9174C70.902 23.2878 71.699 23.5648 72.6598 23.8008C74.5705 24.2754 77.1363 24.5539 79.975 24.5539C82.8137 24.5539 85.3795 24.2754 87.2902 23.8008C88.251 23.5648 89.048 23.2878 89.6813 22.9174C89.9979 22.7322 90.2818 22.5278 90.5329 22.2205C90.7949 21.9132 91.0461 21.4249 91.0461 20.8281C91.0461 20.6402 91.0242 20.4646 90.9805 20.3C93.0659 21.5209 94.1905 23.8694 93.9066 26.2097C93.6883 27.8997 92.7165 29.4347 91.1771 30.2304C90.2927 30.6968 89.2227 30.9437 87.9671 30.93C86.515 34.3183 84.5497 37.1168 82.4425 38.42V44.4421C84.2877 45.8551 85.5324 48.777 86.7334 51.7949C82.5189 53.0981 77.442 53.1667 73.2057 51.8086C74.4176 48.7907 75.6514 45.8551 77.5075 44.4421V38.42C75.4003 37.1168 73.435 34.3183 71.9829 30.93C70.7273 30.9437 69.6573 30.6968 68.7729 30.2304C67.2335 29.4347 66.2617 27.8997 66.0434 26.2097ZM71.033 28.4004C70.3997 26.5032 69.9412 24.5045 69.6901 22.5374C68.3471 23.3385 67.8558 24.7405 67.9868 25.8283C68.0851 26.6349 68.5 27.4209 69.5263 27.9559C69.9303 28.1658 70.4216 28.325 71.033 28.4004ZM91.9632 25.8283C92.0942 24.7405 91.6029 23.3385 90.2599 22.5374C90.0088 24.5045 89.5503 26.5032 88.917 28.4004C89.5284 28.325 90.0197 28.1658 90.4237 27.9559C91.45 27.4209 91.8649 26.6349 91.9632 25.8283Z" fill="black"/>
</svg>
