<svg width="348" height="53" viewBox="0 0 348 53" fill="none" xmlns="http://www.w3.org/2000/svg">
<path d="M80.0343 0.400239C79.9408 0.399644 79.8472 0.400132 79.7537 0.401719C79.4102 0.408631 79.0667 0.431596 78.7252 0.468095C78.7422 0.476289 78.7529 0.483903 78.7492 0.489732L77.4701 2.43742L81.2415 4.87895L81.2351 4.88823L84.839 4.90207L85.9521 2.6458L84.5153 1.29843C83.7055 0.962434 82.8585 0.717515 81.991 0.568497C81.3454 0.457871 80.6899 0.402558 80.0343 0.400239Z" fill="#1971C2"/>
<path d="M76.7622 3.08868L73.0036 4.90512L72.2988 9.76511L74.9188 11.4273L79.7331 9.28204L80.4921 5.50398L76.7622 3.08868Z" fill="#1971C2"/>
<path d="M86.7814 3.10568L85.697 5.30338L87.5723 8.89476L90.7393 10.8161L91.3165 9.76511C91.3189 9.76659 91.3214 9.76833 91.3237 9.77031C91.3328 9.77774 91.3417 9.78861 91.35 9.80214C91.3107 9.55748 91.2627 9.31355 91.2066 9.07211C90.8777 7.66014 90.258 6.30833 89.3951 5.12267C88.9323 4.48697 88.3987 3.89897 87.8084 3.36945L86.7814 3.10568Z" fill="#1971C2"/>
<path d="M71.3373 4.24156C70.9848 4.63889 70.6608 5.0594 70.3709 5.50092C69.571 6.71899 69.0217 8.09342 68.7667 9.51663C68.6425 10.2111 68.5875 10.9155 68.6024 11.6202L69.6357 11.8718L71.3212 9.87163L72.0596 4.78166L71.3373 4.24156Z" fill="#1971C2"/>
<path d="M87.2949 9.81453L84.4468 12.0246L84.2697 17.0172L86.2918 18.0605L90.2306 15.6113L90.4554 11.7221L90.4506 11.7298L87.2949 9.81453Z" fill="#1971C2"/>
<path d="M80.1078 10.1309L75.3094 12.2699L75.2473 16.0542L79.7967 18.8878L83.3145 17.0883L83.4899 12.0632L80.1078 10.1309Z" fill="#1971C2"/>
<path d="M68.6662 12.5879C68.7126 13.0045 68.783 13.4184 68.8782 13.8272C69.2071 15.2392 69.8284 16.5909 70.6914 17.7765C70.889 18.0482 71.1006 18.3102 71.3228 18.5636L70.8445 16.1854L70.8508 16.1838L69.4715 12.7838L68.6662 12.5879Z" fill="#1971C2"/>
<path d="M74.6461 16.778L72.0165 17.1808L72.5332 19.7536C72.9707 20.1236 73.4366 20.461 73.927 20.7629C74.6743 21.222 75.4736 21.5964 76.3093 21.8787L79.5051 21.2026L79.2834 19.6655L74.6461 16.778Z" fill="#1971C2"/>
<path d="M90.079 16.8027L86.802 18.8399L84.6588 21.1796L84.8837 21.4836C85.4974 21.2098 86.0865 20.8839 86.6394 20.5097C87.8626 19.682 88.9155 18.618 89.7154 17.3999C89.8435 17.2049 89.9639 17.0053 90.079 16.8027Z" fill="#1971C2"/>
<path d="M83.8138 21.6256L79.7345 22.101L78.4094 22.3802C79.7868 22.5778 81.2015 22.5306 82.5587 22.2413C83.039 22.139 83.5121 22.0047 83.9747 21.8432L83.8138 21.6256Z" fill="#1971C2"/>
<path fill-rule="evenodd" clip-rule="evenodd" d="M0 6.17999V51.96H8.12V35.16H14.7C18.0133 35.16 20.9767 34.6233 23.59 33.55C26.25 32.4767 28.3267 30.8433 29.82 28.65C31.36 26.4567 32.13 23.68 32.13 20.32C32.13 16.7733 31.36 13.9733 29.82 11.92C28.28 9.86665 26.18 8.39665 23.52 7.50999C20.86 6.62332 17.8267 6.17999 14.42 6.17999H0ZM14.07 28.65H8.12V12.69H13.79C17.1967 12.69 19.7633 13.25 21.49 14.37C23.2633 15.4433 24.15 17.4267 24.15 20.32C24.15 23.0733 23.31 25.15 21.63 26.55C19.9967 27.95 17.4767 28.65 14.07 28.65Z" fill="#1971C2"/>
<path d="M40.0422 17.59V51.96H48.0922V30.96C49.1655 28.3467 50.4489 26.5267 51.9422 25.5C53.4355 24.4267 54.8589 23.89 56.2122 23.89C56.9589 23.89 57.5655 23.9367 58.0322 24.03C58.4989 24.0767 59.0122 24.17 59.5722 24.31L61.1822 17.45C60.6689 17.17 60.1089 16.9833 59.5022 16.89C58.8955 16.7967 58.1488 16.75 57.2622 16.75C55.3955 16.75 53.5989 17.3567 51.8722 18.57C50.1922 19.7367 48.7455 21.44 47.5322 23.68H47.2522L46.6922 17.59H40.0422Z" fill="#1971C2"/>
<path d="M100.618 51.96V17.59H107.268L107.828 22.28H108.108C109.555 20.74 111.118 19.4333 112.798 18.36C114.525 17.2867 116.462 16.75 118.608 16.75C121.175 16.75 123.205 17.2867 124.698 18.36C126.192 19.4333 127.335 20.95 128.128 22.91C129.762 21.1367 131.465 19.6667 133.238 18.5C135.012 17.3333 136.995 16.75 139.188 16.75C142.828 16.75 145.512 17.94 147.238 20.32C148.965 22.7 149.828 26.06 149.828 30.4V51.96H141.708V31.45C141.708 28.6033 141.288 26.5967 140.448 25.43C139.608 24.2633 138.278 23.68 136.458 23.68C135.338 23.68 134.195 24.03 133.028 24.73C131.862 25.43 130.602 26.5033 129.248 27.95V51.96H121.198V31.45C121.198 28.6033 120.755 26.5967 119.868 25.43C119.028 24.2633 117.698 23.68 115.878 23.68C113.732 23.68 111.328 25.1033 108.668 27.95V51.96H100.618Z" fill="#1971C2"/>
<path fill-rule="evenodd" clip-rule="evenodd" d="M165.632 50.7C168.246 52.1 171.162 52.8 174.382 52.8C176.576 52.8 178.676 52.4733 180.682 51.82C182.736 51.1667 184.556 50.28 186.142 49.16L183.342 43.98C182.176 44.7267 180.916 45.31 179.562 45.73C178.256 46.15 176.856 46.36 175.362 46.36C173.589 46.36 171.932 45.9633 170.392 45.17C168.852 44.33 167.616 43.07 166.682 41.39C166.057 40.2332 165.641 38.8566 165.435 37.26H186.982C187.122 36.6067 187.216 35.93 187.262 35.23C187.356 34.53 187.402 33.8067 187.402 33.06C187.402 29.8867 186.866 27.0867 185.792 24.66C184.766 22.1867 183.202 20.25 181.102 18.85C179.002 17.45 176.389 16.75 173.262 16.75C170.556 16.75 167.989 17.4733 165.562 18.92C163.136 20.3667 161.152 22.4433 159.612 25.15C158.072 27.81 157.302 31.0067 157.302 34.74C157.302 38.5667 158.049 41.8333 159.542 44.54C161.036 47.2 163.066 49.2533 165.632 50.7ZM165.524 31.1C165.72 29.7829 166.037 28.6629 166.472 27.74C167.312 26.06 168.339 24.87 169.552 24.17C170.812 23.47 172.096 23.12 173.402 23.12C175.736 23.12 177.462 23.8433 178.582 25.29C179.702 26.69 180.262 28.6267 180.262 31.1H165.524Z" fill="#1971C2"/>
<path d="M204.681 52.8C202.301 52.8 199.944 52.3567 197.611 51.47C195.324 50.5833 193.341 49.3466 191.661 47.76L195.231 43.14C196.771 44.4 198.334 45.31 199.921 45.87C201.508 46.43 203.188 46.71 204.961 46.71C206.828 46.71 208.204 46.3133 209.091 45.52C209.978 44.7267 210.421 43.7467 210.421 42.58C210.421 41.6467 210.071 40.8533 209.371 40.2C208.718 39.5467 207.854 38.9867 206.781 38.52C205.708 38.0533 204.518 37.5867 203.211 37.12C201.531 36.5133 199.968 35.79 198.521 34.95C197.074 34.0633 195.884 32.99 194.951 31.73C194.064 30.4233 193.621 28.86 193.621 27.04C193.621 24.0067 194.741 21.5333 196.981 19.62C199.221 17.7067 202.254 16.75 206.081 16.75C208.414 16.75 210.561 17.1467 212.521 17.94C214.481 18.6867 216.161 19.6667 217.561 20.88L213.991 25.43C212.778 24.5433 211.541 23.89 210.281 23.47C209.021 23.05 207.691 22.84 206.291 22.84C204.564 22.84 203.281 23.2133 202.441 23.96C201.601 24.7067 201.181 25.5933 201.181 26.62C201.181 27.46 201.438 28.1833 201.951 28.79C202.511 29.35 203.304 29.8633 204.331 30.33C205.358 30.75 206.594 31.1933 208.041 31.66C209.814 32.2667 211.471 33.0133 213.011 33.9C214.551 34.74 215.764 35.8367 216.651 37.19C217.584 38.4967 218.051 40.1533 218.051 42.16C218.051 44.12 217.538 45.9167 216.511 47.55C215.484 49.1367 213.968 50.42 211.961 51.4C210.001 52.3333 207.574 52.8 204.681 52.8Z" fill="#1971C2"/>
<path d="M231.187 50.7C233.707 52.1 236.554 52.8 239.727 52.8C241.874 52.8 243.881 52.4033 245.747 51.61C247.661 50.8167 249.341 49.7667 250.787 48.46L247.497 43.49C246.564 44.2833 245.491 44.9367 244.277 45.45C243.111 45.9633 241.851 46.22 240.497 46.22C238.677 46.22 237.067 45.7533 235.667 44.82C234.314 43.84 233.241 42.51 232.447 40.83C231.654 39.1033 231.257 37.0967 231.257 34.81C231.257 32.4767 231.654 30.47 232.447 28.79C233.287 27.0633 234.407 25.7333 235.807 24.8C237.207 23.82 238.817 23.33 240.637 23.33C241.851 23.33 242.924 23.54 243.857 23.96C244.837 24.38 245.701 24.94 246.447 25.64L250.297 20.6C249.084 19.48 247.637 18.57 245.957 17.87C244.324 17.1233 242.411 16.75 240.217 16.75C237.184 16.75 234.337 17.4733 231.677 18.92C229.064 20.32 226.964 22.3733 225.377 25.08C223.791 27.74 222.997 30.9833 222.997 34.81C222.997 38.59 223.721 41.8333 225.167 44.54C226.661 47.2 228.667 49.2533 231.187 50.7Z" fill="#1971C2"/>
<path fill-rule="evenodd" clip-rule="evenodd" d="M269.932 52.8C267.086 52.8 264.426 52.1 261.952 50.7C259.479 49.2533 257.472 47.2 255.932 44.54C254.392 41.8333 253.622 38.59 253.622 34.81C253.622 30.9833 254.392 27.74 255.932 25.08C257.472 22.3733 259.479 20.32 261.952 18.92C264.426 17.4733 267.086 16.75 269.932 16.75C272.826 16.75 275.509 17.4733 277.982 18.92C280.456 20.32 282.462 22.3733 284.002 25.08C285.542 27.74 286.312 30.9833 286.312 34.81C286.312 38.59 285.542 41.8333 284.002 44.54C282.462 47.2 280.456 49.2533 277.982 50.7C275.509 52.1 272.826 52.8 269.932 52.8ZM269.932 46.22C271.612 46.22 273.059 45.7533 274.272 44.82C275.486 43.8867 276.419 42.5567 277.072 40.83C277.726 39.1033 278.052 37.0967 278.052 34.81C278.052 32.5233 277.726 30.5167 277.072 28.79C276.419 27.0633 275.486 25.7333 274.272 24.8C273.059 23.82 271.612 23.33 269.932 23.33C268.252 23.33 266.806 23.82 265.592 24.8C264.426 25.7333 263.516 27.0633 262.862 28.79C262.209 30.5167 261.882 32.5233 261.882 34.81C261.882 37.0967 262.209 39.1033 262.862 40.83C263.516 42.5567 264.426 43.8867 265.592 44.82C266.806 45.7533 268.252 46.22 269.932 46.22Z" fill="#1971C2"/>
<path d="M294.28 17.59V51.96H302.33V30.96C303.404 28.3467 304.687 26.5267 306.18 25.5C307.674 24.4267 309.097 23.89 310.45 23.89C311.197 23.89 311.804 23.9367 312.27 24.03C312.737 24.0767 313.25 24.17 313.81 24.31L315.42 17.45C314.907 17.17 314.347 16.9833 313.74 16.89C313.134 16.7967 312.387 16.75 311.5 16.75C309.634 16.75 307.837 17.3567 306.11 18.57C304.43 19.7367 302.984 21.44 301.77 23.68H301.49L300.93 17.59H294.28Z" fill="#1971C2"/>
<path fill-rule="evenodd" clip-rule="evenodd" d="M334.48 52.8C331.26 52.8 328.343 52.1 325.73 50.7C323.163 49.2533 321.133 47.2 319.64 44.54C318.147 41.8333 317.4 38.5667 317.4 34.74C317.4 31.0067 318.17 27.81 319.71 25.15C321.25 22.4433 323.233 20.3667 325.66 18.92C328.087 17.4733 330.653 16.75 333.36 16.75C336.487 16.75 339.1 17.45 341.2 18.85C343.3 20.25 344.863 22.1867 345.89 24.66C346.963 27.0867 347.5 29.8867 347.5 33.06C347.5 33.8067 347.453 34.53 347.36 35.23C347.313 35.93 347.22 36.6067 347.08 37.26H325.533C325.739 38.8566 326.155 40.2332 326.78 41.39C327.713 43.07 328.95 44.33 330.49 45.17C332.03 45.9633 333.687 46.36 335.46 46.36C336.953 46.36 338.353 46.15 339.66 45.73C341.013 45.31 342.273 44.7267 343.44 43.98L346.24 49.16C344.653 50.28 342.833 51.1667 340.78 51.82C338.773 52.4733 336.673 52.8 334.48 52.8ZM326.57 27.74C326.134 28.6629 325.818 29.7829 325.622 31.1H340.36C340.36 28.6267 339.8 26.69 338.68 25.29C337.56 23.8433 335.833 23.12 333.5 23.12C332.193 23.12 330.91 23.47 329.65 24.17C328.437 24.87 327.41 26.06 326.57 27.74Z" fill="#1971C2"/>
<path fill-rule="evenodd" clip-rule="evenodd" d="M66.0434 25.8097C65.7595 23.4694 66.8841 21.1209 68.9695 19.9C68.9258 20.0646 68.9039 20.2402 68.9039 20.4281C68.9039 21.0249 69.1551 21.5132 69.4171 21.8205C69.6682 22.1278 69.9521 22.3322 70.2687 22.5174C70.902 22.8878 71.699 23.1649 72.6598 23.4008C74.5705 23.8754 77.1363 24.1539 79.975 24.1539C82.8137 24.1539 85.3795 23.8754 87.2902 23.4008C88.251 23.1649 89.048 22.8878 89.6813 22.5174C89.9979 22.3322 90.2818 22.1278 90.5329 21.8205C90.7949 21.5132 91.0461 21.0249 91.0461 20.4281C91.0461 20.2402 91.0242 20.0646 90.9805 19.9C93.0659 21.1209 94.1905 23.4694 93.9066 25.8097C93.6883 27.4997 92.7165 29.0347 91.1771 29.8304C90.2927 30.2968 89.2227 30.5437 87.9671 30.53C86.515 33.9183 84.5497 36.7168 82.4425 38.02V44.0421C84.2877 45.4551 85.5324 48.377 86.7334 51.3949C82.5189 52.6981 77.442 52.7667 73.2057 51.4086C74.4176 48.3907 75.6514 45.4551 77.5075 44.0421V38.02C75.4003 36.7168 73.435 33.9183 71.9829 30.53C70.7273 30.5437 69.6573 30.2968 68.7729 29.8304C67.2335 29.0347 66.2617 27.4997 66.0434 25.8097ZM71.033 28.0004C70.3997 26.1032 69.9412 24.1045 69.6901 22.1374C68.3471 22.9385 67.8558 24.3405 67.9868 25.4283C68.0851 26.2349 68.5 27.021 69.5263 27.556C69.9303 27.7658 70.4216 27.925 71.033 28.0004ZM91.9632 25.4283C92.0942 24.3405 91.6029 22.9385 90.2599 22.1374C90.0088 24.1045 89.5503 26.1032 88.917 28.0004C89.5284 27.925 90.0197 27.7658 90.4237 27.556C91.45 27.021 91.8649 26.2349 91.9632 25.4283Z" fill="#1971C2"/>
</svg>
