<svg width="155" height="154" viewBox="0 0 155 154" fill="none" xmlns="http://www.w3.org/2000/svg">
<path fill-rule="evenodd" clip-rule="evenodd" d="M61.2935 153.91C63.8001 148.551 66.5976 143.927 70.1725 141.206V123.323C63.915 119.453 58.0789 111.142 53.7667 101.081C50.0381 101.121 46.8607 100.388 44.2345 99.003C39.6629 96.6403 36.7773 92.0819 36.1288 87.0631C35.2858 80.1135 38.6254 73.1394 44.8181 69.5139C44.6884 70.0027 44.6235 70.5241 44.6235 71.0822C44.6235 72.8542 45.3693 74.3045 46.1474 75.217C46.8931 76.1295 47.7361 76.7364 48.6764 77.2864C50.5569 78.3863 52.9237 79.2091 55.7769 79.9098C61.4508 81.3193 69.0701 82.1462 77.5 82.1462C85.9299 82.1462 93.5492 81.3193 99.2231 79.9098C102.076 79.2091 104.443 78.3863 106.324 77.2864C107.264 76.7364 108.107 76.1295 108.853 75.217C109.631 74.3045 110.376 72.8542 110.376 71.0822C110.376 70.5241 110.312 70.0027 110.182 69.5139C116.375 73.1394 119.714 80.1135 118.871 87.0631C118.223 92.0819 115.337 96.6403 110.766 99.003C108.139 100.388 104.962 101.121 101.233 101.081C96.9211 111.142 91.085 119.453 84.8275 123.323V141.206C88.388 143.932 91.1955 148.551 93.7038 153.91C128.727 146.46 155 115.352 155 78.1069C155 35.3048 120.302 0.606873 77.5 0.606873C34.6979 0.606873 0 35.3048 0 78.1069C0 115.351 26.2714 146.458 61.2935 153.91ZM77.6761 11.6076C77.3983 11.6058 77.1205 11.6073 76.8427 11.612C75.8229 11.6325 74.8027 11.7007 73.7885 11.8091C73.839 11.8334 73.871 11.856 73.8598 11.8733L70.0616 17.6572L81.261 24.9075L81.242 24.9351L91.9441 24.9762L95.2495 18.276L90.9829 14.2749C88.5781 13.2771 86.0628 12.5498 83.4865 12.1073C81.5696 11.7787 79.6227 11.6145 77.6761 11.6076ZM67.9593 19.5912L56.7979 24.9853L54.7048 39.4174L62.4852 44.3534L76.7816 37.9829L79.0357 26.7636L67.9593 19.5912ZM97.7121 19.6416L94.492 26.1679L100.061 36.8328L109.466 42.5385L111.18 39.4174C111.214 39.4384 111.248 39.4765 111.279 39.5274C111.162 38.8008 111.02 38.0765 110.853 37.3595C109.876 33.1665 108.036 29.1522 105.474 25.6313C104.099 23.7435 102.515 21.9974 100.762 20.4249L97.7121 19.6416ZM51.8495 23.0148C50.803 24.1946 49.8406 25.4434 48.9797 26.7545C46.6043 30.3717 44.9732 34.4532 44.2159 38.6796C43.8472 40.7419 43.6838 42.8337 43.728 44.9263L46.7966 45.6734L51.8017 39.7337L53.9944 24.6186L51.8495 23.0148ZM99.237 39.5642L90.7794 46.1271L90.2536 60.9532L96.2583 64.0514L107.955 56.7781L108.623 45.2288L108.608 45.2519L99.237 39.5642ZM77.8942 40.5037L63.6452 46.8557L63.4606 58.0933L76.9706 66.508L87.417 61.1642L87.9379 46.2418L77.8942 40.5037ZM43.9174 47.7999C44.0553 49.0371 44.2644 50.2661 44.5472 51.4801C45.5238 55.673 47.3688 59.6871 49.9315 63.208C50.5184 64.0146 51.1468 64.7927 51.8066 65.5454L50.3861 58.483L50.4049 58.4783L46.3089 48.3818L43.9174 47.7999ZM61.6754 60.2429L53.8665 61.439L55.4008 69.079C56.7001 70.178 58.0838 71.18 59.5398 72.0763C61.759 73.4395 64.1328 74.5514 66.6145 75.3898L76.1044 73.3821L75.4462 68.8175L61.6754 60.2429ZM107.504 60.3164C107.163 60.9179 106.805 61.5107 106.425 62.0895C104.05 65.7069 100.923 68.8665 97.2905 71.3245C95.6485 72.4356 93.8994 73.4034 92.0769 74.2166L91.4089 73.3138L97.7733 66.3658L107.504 60.3164ZM88.8995 74.6382L76.7859 76.0498L72.8508 76.8791C76.9412 77.4658 81.1423 77.3256 85.1725 76.4666C86.5988 76.1627 88.0038 75.7641 89.3776 75.2842L88.8995 74.6382Z" fill="black"/>
<path d="M50.9459 93.5688C49.0654 87.9349 47.7037 81.9996 46.958 76.158C42.97 78.537 41.511 82.7003 41.9 85.9307C42.1918 88.326 43.4239 90.6602 46.4716 92.2489C47.6713 92.8722 49.1303 93.3447 50.9459 93.5688Z" fill="black"/>
<path d="M113.1 85.9307C113.489 82.7003 112.03 78.537 108.042 76.158C107.296 81.9996 105.935 87.9349 104.054 93.5688C105.87 93.3447 107.329 92.8722 108.528 92.2489C111.576 90.6602 112.808 88.326 113.1 85.9307Z" fill="black"/>
</svg>
