<svg width="348" height="53" viewBox="0 0 348 53" fill="none" xmlns="http://www.w3.org/2000/svg">
<path d="M80.0343 0.000244846C79.9408 -0.000350247 79.8472 0.000138035 79.7537 0.00172495C79.4102 0.00863718 79.0667 0.0316017 78.7252 0.0681007C78.7422 0.0762947 78.7529 0.0839088 78.7492 0.0897376L77.4701 2.03743L81.2415 4.47896L81.2351 4.48824L84.839 4.50208L85.9521 2.2458L84.5153 0.898438C83.7055 0.56244 82.8585 0.317521 81.991 0.168504C81.3454 0.0578773 80.6899 0.00256418 80.0343 0.000244846Z" fill="white"/>
<path d="M76.7622 2.68869L73.0036 4.50513L72.2988 9.36511L74.9188 11.0273L79.7331 8.88205L80.4921 5.10399L76.7622 2.68869Z" fill="white"/>
<path d="M86.7814 2.70569L85.697 4.90338L87.5723 8.49477L90.7393 10.4162L91.3165 9.36511C91.3189 9.36659 91.3214 9.36833 91.3237 9.37032C91.3328 9.37775 91.3417 9.38861 91.35 9.40215C91.3107 9.15749 91.2627 8.91356 91.2066 8.67212C90.8777 7.26015 90.258 5.90834 89.3951 4.72267C88.9323 4.08698 88.3987 3.49898 87.8084 2.96945L86.7814 2.70569Z" fill="white"/>
<path d="M71.3373 3.84157C70.9848 4.23889 70.6608 4.65941 70.3709 5.10092C69.571 6.319 69.0217 7.69342 68.7667 9.11664C68.6425 9.81113 68.5875 10.5155 68.6024 11.2202L69.6357 11.4718L71.3212 9.47163L72.0596 4.38167L71.3373 3.84157Z" fill="white"/>
<path d="M87.2949 9.41454L84.4468 11.6246L84.2697 16.6172L86.2918 17.6606L90.2306 15.2113L90.4554 11.3221L90.4506 11.3299L87.2949 9.41454Z" fill="white"/>
<path d="M80.1078 9.73091L75.3094 11.8699L75.2473 15.6542L79.7967 18.4878L83.3145 16.6883L83.4899 11.6632L80.1078 9.73091Z" fill="white"/>
<path d="M68.6662 12.1879C68.7126 12.6045 68.783 13.0184 68.8782 13.4272C69.2071 14.8392 69.8284 16.1909 70.6914 17.3765C70.889 17.6482 71.1006 17.9102 71.3228 18.1637L70.8445 15.7854L70.8508 15.7838L69.4715 12.3839L68.6662 12.1879Z" fill="white"/>
<path d="M74.6461 16.378L72.0165 16.7808L72.5332 19.3536C72.9707 19.7236 73.4366 20.0611 73.927 20.3629C74.6743 20.822 75.4736 21.1964 76.3093 21.4787L79.5051 20.8026L79.2834 19.2655L74.6461 16.378Z" fill="white"/>
<path d="M90.079 16.4027L86.802 18.4399L84.6588 20.7796L84.8837 21.0836C85.4974 20.8098 86.0865 20.4839 86.6394 20.1097C87.8626 19.282 88.9155 18.218 89.7154 16.9999C89.8435 16.8049 89.9639 16.6053 90.079 16.4027Z" fill="white"/>
<path d="M83.8138 21.2256L79.7345 21.701L78.4094 21.9802C79.7868 22.1778 81.2015 22.1306 82.5587 21.8413C83.039 21.739 83.5121 21.6048 83.9747 21.4432L83.8138 21.2256Z" fill="white"/>
<path fill-rule="evenodd" clip-rule="evenodd" d="M0 5.78V51.56H8.12V34.76H14.7C18.0133 34.76 20.9767 34.2233 23.59 33.15C26.25 32.0767 28.3267 30.4433 29.82 28.25C31.36 26.0567 32.13 23.28 32.13 19.92C32.13 16.3733 31.36 13.5733 29.82 11.52C28.28 9.46666 26.18 7.99666 23.52 7.11C20.86 6.22333 17.8267 5.78 14.42 5.78H0ZM14.07 28.25H8.12V12.29H13.79C17.1967 12.29 19.7633 12.85 21.49 13.97C23.2633 15.0433 24.15 17.0267 24.15 19.92C24.15 22.6733 23.31 24.75 21.63 26.15C19.9967 27.55 17.4767 28.25 14.07 28.25Z" fill="white"/>
<path d="M40.0422 17.19V51.56H48.0922V30.56C49.1655 27.9467 50.4489 26.1267 51.9422 25.1C53.4355 24.0267 54.8589 23.49 56.2122 23.49C56.9589 23.49 57.5655 23.5367 58.0322 23.63C58.4989 23.6767 59.0122 23.77 59.5722 23.91L61.1822 17.05C60.6689 16.77 60.1089 16.5833 59.5022 16.49C58.8955 16.3967 58.1488 16.35 57.2622 16.35C55.3955 16.35 53.5989 16.9567 51.8722 18.17C50.1922 19.3367 48.7455 21.04 47.5322 23.28H47.2522L46.6922 17.19H40.0422Z" fill="white"/>
<path d="M100.618 51.56V17.19H107.268L107.828 21.88H108.108C109.555 20.34 111.118 19.0333 112.798 17.96C114.525 16.8867 116.462 16.35 118.608 16.35C121.175 16.35 123.205 16.8867 124.698 17.96C126.192 19.0333 127.335 20.55 128.128 22.51C129.762 20.7367 131.465 19.2667 133.238 18.1C135.012 16.9333 136.995 16.35 139.188 16.35C142.828 16.35 145.512 17.54 147.238 19.92C148.965 22.3 149.828 25.66 149.828 30V51.56H141.708V31.05C141.708 28.2033 141.288 26.1967 140.448 25.03C139.608 23.8633 138.278 23.28 136.458 23.28C135.338 23.28 134.195 23.63 133.028 24.33C131.862 25.03 130.602 26.1033 129.248 27.55V51.56H121.198V31.05C121.198 28.2033 120.755 26.1967 119.868 25.03C119.028 23.8633 117.698 23.28 115.878 23.28C113.732 23.28 111.328 24.7033 108.668 27.55V51.56H100.618Z" fill="white"/>
<path fill-rule="evenodd" clip-rule="evenodd" d="M165.632 50.3C168.246 51.7 171.162 52.4 174.382 52.4C176.576 52.4 178.676 52.0733 180.682 51.42C182.736 50.7667 184.556 49.88 186.142 48.76L183.342 43.58C182.176 44.3267 180.916 44.91 179.562 45.33C178.256 45.75 176.856 45.96 175.362 45.96C173.589 45.96 171.932 45.5633 170.392 44.77C168.852 43.93 167.616 42.67 166.682 40.99C166.057 39.8333 165.641 38.4566 165.435 36.86H186.982C187.122 36.2067 187.216 35.53 187.262 34.83C187.356 34.13 187.402 33.4067 187.402 32.66C187.402 29.4867 186.866 26.6867 185.792 24.26C184.766 21.7867 183.202 19.85 181.102 18.45C179.002 17.05 176.389 16.35 173.262 16.35C170.556 16.35 167.989 17.0733 165.562 18.52C163.136 19.9667 161.152 22.0433 159.612 24.75C158.072 27.41 157.302 30.6067 157.302 34.34C157.302 38.1667 158.049 41.4333 159.542 44.14C161.036 46.8 163.066 48.8533 165.632 50.3ZM165.524 30.7C165.72 29.3829 166.037 28.2629 166.472 27.34C167.312 25.66 168.339 24.47 169.552 23.77C170.812 23.07 172.096 22.72 173.402 22.72C175.736 22.72 177.462 23.4433 178.582 24.89C179.702 26.29 180.262 28.2267 180.262 30.7H165.524Z" fill="white"/>
<path d="M204.681 52.4C202.301 52.4 199.944 51.9567 197.611 51.07C195.324 50.1833 193.341 48.9467 191.661 47.36L195.231 42.74C196.771 44 198.334 44.91 199.921 45.47C201.508 46.03 203.188 46.31 204.961 46.31C206.828 46.31 208.204 45.9133 209.091 45.12C209.978 44.3267 210.421 43.3467 210.421 42.18C210.421 41.2467 210.071 40.4533 209.371 39.8C208.718 39.1467 207.854 38.5867 206.781 38.12C205.708 37.6533 204.518 37.1867 203.211 36.72C201.531 36.1133 199.968 35.39 198.521 34.55C197.074 33.6633 195.884 32.59 194.951 31.33C194.064 30.0233 193.621 28.46 193.621 26.64C193.621 23.6067 194.741 21.1333 196.981 19.22C199.221 17.3067 202.254 16.35 206.081 16.35C208.414 16.35 210.561 16.7467 212.521 17.54C214.481 18.2867 216.161 19.2667 217.561 20.48L213.991 25.03C212.778 24.1433 211.541 23.49 210.281 23.07C209.021 22.65 207.691 22.44 206.291 22.44C204.564 22.44 203.281 22.8133 202.441 23.56C201.601 24.3067 201.181 25.1933 201.181 26.22C201.181 27.06 201.438 27.7833 201.951 28.39C202.511 28.95 203.304 29.4633 204.331 29.93C205.358 30.35 206.594 30.7933 208.041 31.26C209.814 31.8667 211.471 32.6133 213.011 33.5C214.551 34.34 215.764 35.4367 216.651 36.79C217.584 38.0967 218.051 39.7533 218.051 41.76C218.051 43.72 217.538 45.5167 216.511 47.15C215.484 48.7367 213.968 50.02 211.961 51C210.001 51.9333 207.574 52.4 204.681 52.4Z" fill="white"/>
<path d="M231.187 50.3C233.707 51.7 236.554 52.4 239.727 52.4C241.874 52.4 243.881 52.0033 245.747 51.21C247.661 50.4167 249.341 49.3667 250.787 48.06L247.497 43.09C246.564 43.8833 245.491 44.5367 244.277 45.05C243.111 45.5633 241.851 45.82 240.497 45.82C238.677 45.82 237.067 45.3533 235.667 44.42C234.314 43.44 233.241 42.11 232.447 40.43C231.654 38.7033 231.257 36.6967 231.257 34.41C231.257 32.0767 231.654 30.07 232.447 28.39C233.287 26.6633 234.407 25.3333 235.807 24.4C237.207 23.42 238.817 22.93 240.637 22.93C241.851 22.93 242.924 23.14 243.857 23.56C244.837 23.98 245.701 24.54 246.447 25.24L250.297 20.2C249.084 19.08 247.637 18.17 245.957 17.47C244.324 16.7233 242.411 16.35 240.217 16.35C237.184 16.35 234.337 17.0733 231.677 18.52C229.064 19.92 226.964 21.9733 225.377 24.68C223.791 27.34 222.997 30.5833 222.997 34.41C222.997 38.19 223.721 41.4333 225.167 44.14C226.661 46.8 228.667 48.8533 231.187 50.3Z" fill="white"/>
<path fill-rule="evenodd" clip-rule="evenodd" d="M269.932 52.4C267.086 52.4 264.426 51.7 261.952 50.3C259.479 48.8533 257.472 46.8 255.932 44.14C254.392 41.4333 253.622 38.19 253.622 34.41C253.622 30.5833 254.392 27.34 255.932 24.68C257.472 21.9733 259.479 19.92 261.952 18.52C264.426 17.0733 267.086 16.35 269.932 16.35C272.826 16.35 275.509 17.0733 277.982 18.52C280.456 19.92 282.462 21.9733 284.002 24.68C285.542 27.34 286.312 30.5833 286.312 34.41C286.312 38.19 285.542 41.4333 284.002 44.14C282.462 46.8 280.456 48.8533 277.982 50.3C275.509 51.7 272.826 52.4 269.932 52.4ZM269.932 45.82C271.612 45.82 273.059 45.3533 274.272 44.42C275.486 43.4867 276.419 42.1567 277.072 40.43C277.726 38.7033 278.052 36.6967 278.052 34.41C278.052 32.1233 277.726 30.1167 277.072 28.39C276.419 26.6633 275.486 25.3333 274.272 24.4C273.059 23.42 271.612 22.93 269.932 22.93C268.252 22.93 266.806 23.42 265.592 24.4C264.426 25.3333 263.516 26.6633 262.862 28.39C262.209 30.1167 261.882 32.1233 261.882 34.41C261.882 36.6967 262.209 38.7033 262.862 40.43C263.516 42.1567 264.426 43.4867 265.592 44.42C266.806 45.3533 268.252 45.82 269.932 45.82Z" fill="white"/>
<path d="M294.28 17.19V51.56H302.33V30.56C303.404 27.9467 304.687 26.1267 306.18 25.1C307.674 24.0267 309.097 23.49 310.45 23.49C311.197 23.49 311.804 23.5367 312.27 23.63C312.737 23.6767 313.25 23.77 313.81 23.91L315.42 17.05C314.907 16.77 314.347 16.5833 313.74 16.49C313.134 16.3967 312.387 16.35 311.5 16.35C309.634 16.35 307.837 16.9567 306.11 18.17C304.43 19.3367 302.984 21.04 301.77 23.28H301.49L300.93 17.19H294.28Z" fill="white"/>
<path fill-rule="evenodd" clip-rule="evenodd" d="M334.48 52.4C331.26 52.4 328.343 51.7 325.73 50.3C323.163 48.8533 321.133 46.8 319.64 44.14C318.147 41.4333 317.4 38.1667 317.4 34.34C317.4 30.6067 318.17 27.41 319.71 24.75C321.25 22.0433 323.233 19.9667 325.66 18.52C328.087 17.0733 330.653 16.35 333.36 16.35C336.487 16.35 339.1 17.05 341.2 18.45C343.3 19.85 344.863 21.7867 345.89 24.26C346.963 26.6867 347.5 29.4867 347.5 32.66C347.5 33.4067 347.453 34.13 347.36 34.83C347.313 35.53 347.22 36.2067 347.08 36.86H325.533C325.739 38.4566 326.155 39.8333 326.78 40.99C327.713 42.67 328.95 43.93 330.49 44.77C332.03 45.5633 333.687 45.96 335.46 45.96C336.953 45.96 338.353 45.75 339.66 45.33C341.013 44.91 342.273 44.3267 343.44 43.58L346.24 48.76C344.653 49.88 342.833 50.7667 340.78 51.42C338.773 52.0733 336.673 52.4 334.48 52.4ZM326.57 27.34C326.134 28.2629 325.818 29.3829 325.622 30.7H340.36C340.36 28.2267 339.8 26.29 338.68 24.89C337.56 23.4433 335.833 22.72 333.5 22.72C332.193 22.72 330.91 23.07 329.65 23.77C328.437 24.47 327.41 25.66 326.57 27.34Z" fill="white"/>
<path fill-rule="evenodd" clip-rule="evenodd" d="M66.0434 25.4097C65.7595 23.0694 66.8841 20.7209 68.9695 19.5C68.9258 19.6646 68.9039 19.8402 68.9039 20.0281C68.9039 20.6249 69.1551 21.1132 69.4171 21.4205C69.6682 21.7278 69.9521 21.9322 70.2687 22.1174C70.902 22.4878 71.699 22.7649 72.6598 23.0008C74.5705 23.4754 77.1363 23.7539 79.975 23.7539C82.8137 23.7539 85.3795 23.4754 87.2902 23.0008C88.251 22.7649 89.048 22.4878 89.6813 22.1174C89.9979 21.9322 90.2818 21.7278 90.5329 21.4205C90.7949 21.1132 91.0461 20.6249 91.0461 20.0281C91.0461 19.8402 91.0242 19.6646 90.9805 19.5C93.0659 20.7209 94.1905 23.0694 93.9066 25.4097C93.6883 27.0997 92.7165 28.6348 91.1771 29.4304C90.2927 29.8968 89.2227 30.1437 87.9671 30.13C86.515 33.5183 84.5497 36.3168 82.4425 37.62V43.6421C84.2877 45.0551 85.5324 47.977 86.7334 50.9949C82.5189 52.2981 77.442 52.3667 73.2057 51.0086C74.4176 47.9907 75.6514 45.0551 77.5075 43.6421V37.62C75.4003 36.3168 73.435 33.5183 71.9829 30.13C70.7273 30.1437 69.6573 29.8968 68.7729 29.4304C67.2335 28.6348 66.2617 27.0997 66.0434 25.4097ZM71.033 27.6004C70.3997 25.7032 69.9412 23.7045 69.6901 21.7374C68.3471 22.5385 67.8558 23.9405 67.9868 25.0283C68.0851 25.8349 68.5 26.621 69.5263 27.156C69.9303 27.3658 70.4216 27.525 71.033 27.6004ZM91.9632 25.0283C92.0942 23.9405 91.6029 22.5385 90.2599 21.7374C90.0088 23.7045 89.5503 25.7032 88.917 27.6004C89.5284 27.525 90.0197 27.3658 90.4237 27.156C91.45 26.621 91.8649 25.8349 91.9632 25.0283Z" fill="white"/>
</svg>
