<svg width="1564" height="1367" viewBox="0 0 1564 1367" fill="none" xmlns="http://www.w3.org/2000/svg">
    <path d="M1540.18 1253.81H1411.91V1254.77H1540.18V1253.81Z" fill="#787878" />
    <path d="M1080.56 1264.34H1046.9V1265.31H1080.56V1264.34Z" fill="#787878" />
    <path d="M1408.04 1217.87H1333.72V1218.83H1408.04V1217.87Z" fill="#787878" />
    <path d="M168.254 1224.37H0.989502V1225.34H168.254V1224.37Z" fill="#787878" />
    <path d="M227.275 1224.37H202.76V1225.34H227.275V1224.37Z" fill="#787878" />
    <path d="M669.775 1240.72H306.976V1241.68H669.775V1240.72Z" fill="#787878" />
    <path
        d="M1430.97 1167.6L1429.22 776.024L1391.15 726.917L1373.53 597.412L1350.8 556.71L1338.52 466.087L1317.73 507.371L1306.11 755.227L1294.49 726.84L1285.12 630.408L1266.3 661.39L1242.36 670.375L1228.65 875.205L879.485 938.873L806.716 843.758L777.128 658.408L746.65 610.038L737.316 520.693L708 536.184V630.447L683.059 652.367L672.409 843.72L641.117 909.866L632.21 791.631C632.21 791.631 608.237 762.353 602.97 755.266C597.703 748.179 567.419 619.719 571.988 609.999C576.558 600.278 565.444 517.053 565.444 517.053L535.236 544.704V682.923L503.712 695.122L498.793 755.305L418.395 775.172L405.46 682.845H369.598L358.367 735.437L325.72 735.128L274.174 791.67L231.573 664.372L188.392 695.045L157.41 584.787L124.724 649.423L112.641 859.017L95.8721 861.999L88.1265 816.843L56.7185 861.999V1167.6H1430.97Z"
        fill="#2D2D2D" />
    <path
        d="M719.54 255.216H526.871C518.715 255.098 510.941 251.745 505.258 245.895C499.575 240.044 496.448 232.176 496.566 224.021C496.685 215.866 500.038 208.091 505.888 202.408C511.738 196.725 519.606 193.598 527.761 193.716C530.75 193.723 533.723 194.153 536.591 194.994C536.124 191.866 535.891 188.708 535.894 185.545C535.905 168.262 542.775 151.689 554.996 139.468C567.217 127.247 583.789 120.377 601.073 120.367C605.1 120.384 609.118 120.76 613.078 121.49C619.489 110.912 629.171 102.71 640.659 98.1251C652.146 93.5398 664.815 92.8206 676.747 96.0762C688.68 99.3317 699.228 106.385 706.795 116.169C714.362 125.953 718.537 137.935 718.688 150.303H719.54C726.554 150.112 733.535 151.329 740.07 153.882C746.606 156.434 752.564 160.27 757.592 165.164C762.62 170.057 766.617 175.909 769.346 182.373C772.075 188.837 773.481 195.782 773.481 202.798C773.481 209.814 772.075 216.76 769.346 223.223C766.617 229.687 762.62 235.539 757.592 240.432C752.564 245.326 746.606 249.162 740.07 251.714C733.535 254.267 726.554 255.484 719.54 255.293V255.216Z"
        fill="#2D2D2D" />
    <path
        d="M1310.02 227.797H1237.52C1234.44 227.756 1231.5 226.492 1229.35 224.284C1227.2 222.076 1226.02 219.105 1226.06 216.024C1226.1 212.942 1227.36 210.003 1229.57 207.854C1231.78 205.704 1234.75 204.519 1237.83 204.56C1238.96 204.553 1240.08 204.709 1241.16 205.025C1240.99 203.845 1240.9 202.654 1240.89 201.462C1240.9 194.963 1243.49 188.734 1248.08 184.139C1252.68 179.544 1258.91 176.958 1265.4 176.947C1266.93 176.951 1268.44 177.094 1269.94 177.373C1272.35 173.392 1275.99 170.304 1280.31 168.577C1284.64 166.851 1289.4 166.58 1293.89 167.806C1298.38 169.031 1302.35 171.686 1305.2 175.369C1308.05 179.052 1309.62 183.563 1309.67 188.217H1310.02C1312.68 188.099 1315.34 188.522 1317.84 189.46C1320.34 190.399 1322.62 191.833 1324.55 193.677C1326.47 195.521 1328.01 197.736 1329.06 200.189C1330.1 202.642 1330.64 205.281 1330.64 207.949C1330.64 210.616 1330.1 213.256 1329.06 215.709C1328.01 218.162 1326.47 220.377 1324.55 222.221C1322.62 224.065 1320.34 225.499 1317.84 226.437C1315.34 227.376 1312.68 227.799 1310.02 227.681V227.797Z"
        fill="#2D2D2D" />
    <path
        d="M291.95 337.938H187.075C184.878 337.907 182.709 337.444 180.691 336.575C178.672 335.706 176.845 334.448 175.313 332.873C173.781 331.298 172.575 329.437 171.762 327.395C170.949 325.354 170.547 323.172 170.577 320.975C170.608 318.778 171.071 316.609 171.94 314.59C172.809 312.572 174.067 310.745 175.642 309.213C177.217 307.681 179.078 306.474 181.12 305.662C183.161 304.849 185.343 304.447 187.54 304.477C189.167 304.47 190.785 304.705 192.342 305.174C192.095 303.468 191.966 301.747 191.955 300.024C191.965 290.622 195.707 281.609 202.359 274.964C209.011 268.32 218.028 264.588 227.429 264.588C229.626 264.577 231.819 264.785 233.974 265.208C237.463 259.483 242.713 255.044 248.939 252.557C255.164 250.071 262.028 249.67 268.5 251.416C274.972 253.162 280.704 256.959 284.834 262.239C288.964 267.519 291.271 273.996 291.407 280.699H291.95C299.343 280.971 306.342 284.099 311.476 289.426C316.61 294.752 319.479 301.862 319.479 309.26C319.479 316.658 316.61 323.768 311.476 329.094C306.342 334.421 299.343 337.549 291.95 337.822V337.938Z"
        fill="#2D2D2D" />
    <path
        d="M972.392 294.602H867.518C863.081 294.54 858.85 292.718 855.756 289.537C852.662 286.356 850.959 282.076 851.02 277.639C851.082 273.202 852.904 268.971 856.085 265.877C859.266 262.783 863.546 261.08 867.983 261.141C869.611 261.146 871.23 261.394 872.785 261.877C872.539 260.171 872.41 258.45 872.398 256.726C872.398 247.318 876.135 238.295 882.788 231.642C889.441 224.989 898.464 221.252 907.872 221.252C910.068 221.26 912.259 221.468 914.417 221.871C917.905 216.147 923.156 211.708 929.381 209.221C935.607 206.735 942.471 206.334 948.943 208.08C955.415 209.825 961.147 213.623 965.277 218.903C969.407 224.183 971.714 230.66 971.85 237.362H972.392C979.785 237.635 986.785 240.763 991.919 246.09C997.053 251.416 999.921 258.526 999.921 265.924C999.921 273.322 997.053 280.432 991.919 285.758C986.785 291.085 979.785 294.213 972.392 294.486V294.602Z"
        fill="#2D2D2D" />
    <path
        d="M84.4087 1061.14L145.831 1042.43L159.656 785.977L201.559 741.634L216.082 521.739L253.726 456.986L271.23 507.332L299.811 587.033L309.338 665.186L325.565 734.895L360.42 818.508L391.867 775.636C391.867 775.636 408.984 733.036 417.156 727.653C425.327 722.27 458.904 717.429 458.904 717.429L505.377 785.744V838.879L553.051 877.606L582.367 922.646C595.225 942.32 607.269 977.407 628.841 978.143C658.312 979.15 696.11 898.016 710.168 864.477C721.322 838.259 730.384 809.833 743.513 785.861C774.301 729.667 827.203 697.136 839.208 626.187C851.627 643.692 864.033 661.21 876.426 678.74C879.64 683.271 883.397 688.112 887.773 687.802C892.149 687.493 894.744 683.426 897.571 679.476C916.315 653.606 935.601 626.574 945.554 591.1C948.691 580.024 950.86 568.212 954.849 557.755C960.581 542.69 969.643 531.421 977.776 519.028C1008.99 472.013 1026.92 408.732 1044.12 347.155C1079.71 408.035 1140.01 350.098 1156 448.35C1162.27 487.078 1169.63 524.953 1178.73 562.286C1210.28 692.351 1258.59 817.767 1322.45 935.388C1346.45 979.456 1372.77 1022.22 1401.3 1063.5C1416.92 1085.83 1432.79 1107.33 1448.9 1127.98C1458.73 1140.57 1488.94 1190.87 1501.41 1190.87H17.41L84.4087 1061.14Z"
        fill="#787878" />
    <path
        d="M132.121 1192.34L195.712 1059.04C195.712 1059.04 225.106 1058.58 231.341 1049.09C237.576 1039.6 254.577 1016.6 274.367 984.804C294.157 953.009 326.456 892.168 326.456 892.168L367.817 913.197C367.817 913.197 392.331 999.83 398.489 1020.9C404.647 1041.97 424.669 1088.75 424.669 1088.75L483.844 1116.83C483.844 1116.83 489.46 1067.68 506.771 1034.92C524.082 1002.15 550.224 943.637 550.224 943.637L574.622 830.358L606.65 789.462L638.212 853.014C638.212 853.014 658.661 886.165 661.914 904.406C665.167 922.646 673.532 974.541 678.45 984.843C683.369 995.144 708.271 1056.45 708.271 1056.45L723.762 1091.3L787.004 1093.63C787.004 1093.63 793.045 1080.46 803.385 1056.6C813.726 1032.75 820.309 1004.21 825.46 996.267C830.611 988.328 848.697 904.56 848.697 904.56L871.933 875.98L964.105 1095.95C964.105 1095.95 1054.3 1137.08 1072.54 1128.21C1090.78 1119.34 1100.04 1126.39 1116.92 1107.69C1133.81 1088.98 1184.93 883.067 1186.94 871.448C1188.96 859.83 1195.11 861.612 1216.57 841.938C1238.02 822.265 1248.91 805.031 1249.57 817.191C1250.22 829.352 1275.4 906.652 1277.37 928.843C1279.35 951.033 1285.81 984.998 1287.94 1008.97C1289.94 1029.84 1295.33 1050.25 1303.9 1069.38C1310.02 1082.09 1353.47 1192.69 1353.47 1192.69L132.121 1192.34Z"
        fill="#E0E0E0" />
    <path
        d="M766.013 1366.39C1180.72 1366.39 1516.9 1346.76 1516.9 1322.55C1516.9 1298.33 1180.72 1278.71 766.013 1278.71C351.309 1278.71 15.125 1298.33 15.125 1322.55C15.125 1346.76 351.309 1366.39 766.013 1366.39Z"
        fill="#2D2D2D" />
    <path
        d="M950.937 723.974L914.185 727.576C909.966 725.152 905.371 723.451 900.592 722.541C895.596 722.347 877.897 724.168 878.439 725.678C878.982 727.188 884.752 745.042 889.438 748.14C894.124 751.238 914.301 749.457 914.766 747.559C915.144 746.023 915.61 744.511 916.16 743.028L952.061 738.613L950.937 723.974Z"
        fill="#EEC1BB" />
    <path
        d="M1079.71 690.552C1079.71 690.552 1068.98 699.343 1055.23 709.529C1037.03 723.045 1013.64 739.039 1003.14 740.511C984.747 742.834 930.334 743.415 930.334 743.415L926.152 724.051C926.152 724.051 1001.63 706.082 1006.98 703.565C1012.32 701.047 1038.73 658.95 1038.73 658.95L1051.13 668.555L1079.71 690.552Z"
        fill="#263238" />
    <path opacity="0.2"
        d="M1079.71 690.552C1079.71 690.552 1068.98 699.343 1055.23 709.529C1048.92 695.161 1047.49 677.036 1051.13 668.361L1079.71 690.552Z"
        fill="black" />
    <path
        d="M1349.75 1232.16L1377.1 1232.58C1377.55 1232.59 1377.98 1232.75 1378.32 1233.04C1378.67 1233.33 1378.9 1233.73 1378.99 1234.17L1383.1 1254.23C1383.26 1255.09 1383.07 1255.98 1382.58 1256.71C1382.08 1257.43 1381.33 1257.94 1380.46 1258.1C1380.22 1258.14 1379.97 1258.14 1379.73 1258.1C1370.9 1257.83 1364.47 1257.17 1353.39 1257.02C1346.54 1257.02 1325.9 1257.29 1316.49 1257.02C1307.08 1256.75 1305.95 1247.53 1309.83 1246.76C1327.21 1243.23 1340.34 1238.2 1345.96 1233.32C1347.02 1232.45 1348.39 1232.03 1349.75 1232.16Z"
        fill="#263238" />
    <path
        d="M1383.18 1233.55H1345.96C1345.96 1233.55 1266.37 1074.5 1253.98 1033.95C1241.59 993.401 1219.71 891.742 1219.71 891.742C1218.97 891.742 1210.95 892.671 1198.68 894.182C1153.91 899.681 1052.33 913.971 1040.24 931.476C1024.75 953.977 979.402 1117.37 979.402 1117.37L947.529 1097.42C947.529 1097.42 970.533 960.56 992.686 901.617C1013.02 847.592 1152.9 832.217 1155.11 825.518C1157.94 816.959 1150.15 786.519 1150.15 786.519L1253.05 738.652C1253.05 738.652 1281.09 787.177 1286.94 803.791C1303.16 851.155 1314.43 978.065 1317.22 1000.91C1322.49 1044.52 1383.18 1233.55 1383.18 1233.55Z"
        fill="#1971C2" />
    <path
        d="M951.286 1102.38L975.452 1115.16C975.842 1115.37 976.15 1115.71 976.326 1116.12C976.501 1116.52 976.535 1116.98 976.42 1117.41L970.998 1137.2C970.755 1138.04 970.187 1138.76 969.417 1139.19C968.648 1139.61 967.741 1139.72 966.893 1139.48L966.196 1139.21C958.451 1134.95 953.029 1131.47 943.192 1126.28C937.15 1123.1 918.6 1114.08 910.235 1109.66C901.87 1105.25 905.162 1096.46 908.957 1097.5C926.074 1102.26 939.939 1103.7 947.297 1101.92C948.637 1101.55 950.067 1101.71 951.286 1102.38Z"
        fill="#263238" />
    <path opacity="0.2"
        d="M1198.64 894.182C1200.38 886.087 1201.27 880.937 1201.27 880.937C1172.07 858.32 1175.36 831.908 1175.36 831.908C1188.18 847.011 1217.19 853.014 1217.19 853.014L1219.67 891.742C1219.13 891.742 1210.92 892.671 1198.64 894.182Z"
        fill="black" />
    <path d="M1256.65 751.316L1251.11 739.542L1153.13 788.339L1159.83 798.563L1256.65 751.316Z" fill="#263238" />
    <path opacity="0.2" d="M1256.65 751.316L1251.11 739.542L1153.13 788.339L1159.83 798.563L1256.65 751.316Z"
        fill="white" />
    <path
        d="M1181.37 774.591L1186.4 785.163C1186.5 785.351 1186.56 785.557 1186.58 785.768C1186.6 785.98 1186.58 786.193 1186.51 786.395C1186.45 786.597 1186.34 786.785 1186.2 786.946C1186.06 787.106 1185.89 787.238 1185.7 787.332L1170.21 794.187C1169.87 794.321 1169.48 794.32 1169.14 794.183C1168.79 794.047 1168.51 793.785 1168.35 793.451L1162.85 783.305C1162.74 783.113 1162.67 782.9 1162.64 782.679C1162.61 782.458 1162.63 782.233 1162.69 782.019C1162.75 781.805 1162.85 781.605 1163 781.434C1163.14 781.262 1163.31 781.121 1163.51 781.02L1179.47 773.894C1179.81 773.746 1180.2 773.735 1180.56 773.865C1180.91 773.995 1181.2 774.254 1181.37 774.591Z"
        fill="white" />
    <path d="M1201.27 764.367L1207.43 778.696L1212.5 777.224L1205.73 762.121L1201.27 764.367Z" fill="#1971C2" />
    <path d="M1240.46 744.848L1247.75 758.558L1251.31 757.512L1243.6 743.26L1240.46 744.848Z" fill="#1971C2" />
    <path d="M1156.77 786.519L1163.71 800.074L1161.34 802.281L1153.13 788.339L1156.77 786.519Z" fill="#1971C2" />
    <path
        d="M1247.01 737.606L1149.65 782.801C1148.84 783.191 1147.95 783.415 1147.05 783.46C1145.88 783.517 1144.71 783.27 1143.65 782.74C1142.6 782.211 1141.71 781.418 1141.05 780.439C1136.44 773.661 1125.17 758.054 1111.08 739.814C1089.19 711.504 1060.42 676.843 1038.66 658.757C1055.38 641.276 1076.46 628.575 1099.73 621.966C1171.8 603.144 1211.07 632.112 1251.08 727.033C1251.9 728.98 1251.93 731.168 1251.17 733.139C1250.41 735.11 1248.92 736.711 1247.01 737.606Z"
        fill="#263238" />
    <path d="M1145.81 783.382L1149.69 789.656L1255.92 741.634L1251.31 732.688L1145.81 783.382Z" fill="#263238" />
    <path opacity="0.2" d="M1145.81 783.382L1149.69 789.656L1255.92 741.634L1251.31 732.688L1145.81 783.382Z"
        fill="black" />
    <path opacity="0.2"
        d="M1212.46 738.652C1210.02 748.101 1171.8 770.06 1147.05 783.46C1145.88 783.518 1144.71 783.27 1143.65 782.74C1142.6 782.211 1141.71 781.418 1141.05 780.439C1136.44 773.661 1125.17 758.054 1111.08 739.814C1128.62 725.213 1153.29 700.273 1153.29 700.273L1147.79 655.697L1190.39 646.674C1190.39 646.674 1216.14 724.632 1212.46 738.652Z"
        fill="black" />
    <path
        d="M1119.71 616.776C1117.87 624.211 1114.38 631.134 1109.49 637.031L1098.1 638.347L1092.99 646.713L1086.17 639.742H1078C1079.87 637.808 1081.27 635.473 1082.09 632.916C1082.92 630.359 1083.15 627.646 1082.77 624.986C1082.61 624.053 1082.37 623.133 1082.07 622.237C1080.02 617.018 1076.83 612.321 1072.74 608.488L1079.75 588.737L1080.21 587.421L1086.52 569.567C1089.79 579.236 1093.99 588.563 1099.07 597.412L1100.46 599.659C1106.04 608.062 1112.51 614.956 1119.71 616.776Z"
        fill="#EEC1BB" />
    <path
        d="M1115.88 763.476L1086.25 785.473C1081.39 785.567 1076.59 786.483 1072.04 788.184C1067.62 790.585 1053.37 801.235 1054.65 802.281C1055.93 803.327 1070.14 815.681 1075.64 815.836C1081.14 815.991 1097.64 804.217 1097.02 802.32C1096.4 800.422 1095.89 797.711 1095.89 797.711L1124.4 775.404L1115.88 763.476Z"
        fill="#EEC1BB" />
    <path
        d="M1163.71 620.184C1198.56 619.061 1202.43 715.919 1194.18 726.143C1185.94 736.367 1111.08 790.353 1111.08 790.353L1093.8 775.288C1093.8 775.288 1168.16 711.194 1165.33 703.332C1162.51 695.471 1145.54 663.249 1146.98 646.635C1148.41 630.021 1155.88 620.649 1163.71 620.184Z"
        fill="#263238" />
    <path opacity="0.2"
        d="M1100.74 598.148C1100.74 598.148 1100.74 598.652 1100.74 599.542C1100.15 604.345 1097.1 620.262 1082.92 624.793C1082.76 623.859 1082.53 622.94 1082.22 622.043C1080.17 616.824 1076.98 612.128 1072.89 608.295L1079.9 588.544C1086.63 590.82 1093.11 593.752 1099.26 597.296L1100.74 598.148Z"
        fill="black" />
    <path
        d="M1074.52 517.634C1070.82 515.595 1066.53 514.894 1062.37 515.649C1058.22 516.404 1054.45 518.568 1051.71 521.777C1041.64 533.396 1037.18 550.823 1050.7 560.505C1064.22 570.187 1095.82 534.441 1095.82 534.441L1074.52 517.634Z"
        fill="#263238" />
    <path
        d="M1112.86 566.43C1105.65 587.537 1102.44 600.239 1088.54 608.179C1067.62 620.262 1043.84 603.067 1044.58 580.179C1045.32 559.614 1057.13 528.555 1080.48 525.96C1085.63 525.337 1090.86 526.04 1095.67 528.003C1100.47 529.967 1104.7 533.125 1107.94 537.178C1111.18 541.232 1113.34 546.047 1114.2 551.166C1115.06 556.285 1114.6 561.539 1112.86 566.43Z"
        fill="#EEC1BB" />
    <path
        d="M1078.62 563.255C1078.27 565.036 1076.84 566.159 1075.68 565.849C1074.52 565.54 1074.01 563.836 1074.48 561.977C1074.94 560.118 1076.3 559.072 1077.42 559.382C1078.54 559.692 1079.13 561.473 1078.62 563.255Z"
        fill="#263238" />
    <path
        d="M1058.87 557.794C1058.52 559.537 1057.05 560.66 1055.93 560.35C1054.8 560.04 1054.26 558.375 1054.73 556.477C1055.19 554.58 1056.55 553.573 1057.67 553.883C1058.79 554.192 1059.34 556.129 1058.87 557.794Z"
        fill="#263238" />
    <path
        d="M1064.91 560.389C1061.41 565.142 1057.26 569.39 1052.6 573.014C1053.57 574.193 1054.79 575.149 1056.17 575.817C1057.54 576.485 1059.05 576.85 1060.58 576.887L1064.91 560.389Z"
        fill="#D4827D" />
    <path
        d="M1075.83 554.386C1075.98 554.253 1076.15 554.162 1076.34 554.121C1076.53 554.08 1076.73 554.091 1076.92 554.154C1078.2 554.609 1079.57 554.756 1080.91 554.581C1082.26 554.406 1083.54 553.914 1084.66 553.147C1084.86 552.953 1085.12 552.844 1085.4 552.844C1085.68 552.844 1085.94 552.953 1086.14 553.147C1086.24 553.244 1086.32 553.362 1086.37 553.491C1086.43 553.621 1086.46 553.761 1086.46 553.902C1086.46 554.043 1086.43 554.183 1086.37 554.313C1086.32 554.442 1086.24 554.56 1086.14 554.657C1084.76 555.63 1083.17 556.261 1081.5 556.497C1079.83 556.732 1078.12 556.566 1076.53 556.013C1076.4 555.973 1076.27 555.907 1076.17 555.819C1076.06 555.731 1075.97 555.623 1075.91 555.5C1075.84 555.378 1075.8 555.243 1075.79 555.105C1075.78 554.967 1075.79 554.828 1075.83 554.696C1075.83 554.593 1075.83 554.489 1075.83 554.386Z"
        fill="#263238" />
    <path
        d="M1080.83 583.393C1078.41 582.364 1075.78 581.929 1073.16 582.124C1070.54 582.319 1068 583.14 1065.76 584.516C1065.67 584.629 1065.61 584.773 1065.61 584.923C1065.61 585.072 1065.67 585.217 1065.76 585.329C1065.86 585.422 1066 585.473 1066.13 585.473C1066.27 585.473 1066.4 585.422 1066.5 585.329C1068.59 584.081 1070.95 583.342 1073.37 583.174C1075.8 583.006 1078.24 583.412 1080.48 584.361C1080.61 584.414 1080.75 584.416 1080.88 584.365C1081.01 584.315 1081.12 584.216 1081.18 584.09C1081.23 583.961 1081.23 583.817 1081.18 583.687C1081.13 583.558 1081.03 583.452 1080.91 583.393H1080.83Z"
        fill="#263238" />
    <path
        d="M1061.97 551.249C1062.03 551.452 1062.03 551.666 1061.97 551.869C1061.89 552.132 1061.71 552.357 1061.48 552.499C1061.24 552.642 1060.96 552.693 1060.69 552.643C1059.05 552.234 1057.52 551.437 1056.25 550.319C1054.98 549.2 1053.99 547.793 1053.37 546.215C1053.32 546.083 1053.3 545.942 1053.31 545.802C1053.32 545.662 1053.36 545.526 1053.43 545.402C1053.49 545.278 1053.59 545.169 1053.7 545.082C1053.81 544.996 1053.93 544.933 1054.07 544.898C1054.33 544.812 1054.62 544.833 1054.86 544.956C1055.11 545.079 1055.3 545.295 1055.39 545.556C1055.91 546.787 1056.72 547.878 1057.74 548.745C1058.76 549.612 1059.97 550.23 1061.27 550.552C1061.43 550.61 1061.58 550.702 1061.7 550.823C1061.82 550.943 1061.91 551.089 1061.97 551.249Z"
        fill="#263238" />
    <path
        d="M1131.99 538.121C1124.86 524.721 1081.91 509.423 1074.52 517.634C1073.49 517.096 1072.37 516.776 1071.22 516.693C1070.06 516.61 1068.9 516.766 1067.81 517.151C1066.72 517.537 1065.72 518.143 1064.88 518.932C1064.03 519.722 1063.36 520.677 1062.9 521.739C1061.25 526.092 1060.93 530.834 1061.97 535.371C1063.65 535.034 1065.34 534.788 1067.04 534.635C1074.36 546.253 1087.49 555.625 1095.28 561.125C1095.21 568.996 1097.96 576.632 1103.02 582.657C1098.06 601.401 1099.15 608.411 1099.15 608.411C1135.78 601.285 1138.61 550.591 1131.99 538.121Z"
        fill="#263238" />
    <path
        d="M1115.99 592.649C1111.84 596.41 1106.37 598.373 1100.77 598.109C1093.34 597.722 1091.98 590.364 1096.05 584.71C1099.69 579.636 1107.98 573.479 1114.45 576.964C1115.83 577.694 1117 578.754 1117.87 580.049C1118.74 581.345 1119.28 582.837 1119.43 584.39C1119.59 585.944 1119.35 587.511 1118.75 588.952C1118.15 590.394 1117.21 591.664 1115.99 592.649Z"
        fill="#EEC1BB" />
    <path
        d="M1073.35 518.795C1073.35 518.795 1081.6 494.784 1111.08 506.79C1111.08 506.79 1089.74 500.942 1084.39 518.795H1073.35Z"
        fill="#263238" />
    <path
        d="M1075.45 526.425C1075.27 526.421 1075.1 526.373 1074.95 526.285C1074.8 526.197 1074.68 526.071 1074.59 525.921C1074.32 525.457 1067.51 513.567 1071.88 505.628C1074.13 501.484 1078.97 499.238 1086.17 498.967C1086.3 498.962 1086.43 498.982 1086.55 499.026C1086.67 499.07 1086.78 499.137 1086.87 499.223C1086.96 499.309 1087.04 499.413 1087.09 499.529C1087.15 499.644 1087.18 499.769 1087.18 499.896C1087.18 500.151 1087.09 500.396 1086.91 500.582C1086.74 500.769 1086.5 500.884 1086.25 500.903C1079.75 501.136 1075.49 503.072 1073.59 506.558C1069.71 513.567 1076.22 524.837 1076.26 524.953C1076.39 525.18 1076.42 525.448 1076.36 525.701C1076.29 525.954 1076.13 526.172 1075.91 526.309C1075.77 526.383 1075.61 526.423 1075.45 526.425Z"
        fill="#263238" />
    <path
        d="M1141.09 573.13C1140.84 573.12 1140.6 573.014 1140.43 572.833C1140.26 572.653 1140.16 572.412 1140.16 572.162C1140.39 545.789 1123.47 536.068 1123.27 535.991C1123.06 535.861 1122.89 535.653 1122.82 535.408C1122.75 535.164 1122.77 534.902 1122.89 534.674C1122.95 534.562 1123.03 534.463 1123.13 534.383C1123.23 534.302 1123.34 534.243 1123.47 534.207C1123.59 534.171 1123.72 534.159 1123.84 534.173C1123.97 534.187 1124.09 534.225 1124.2 534.286C1124.2 534.286 1142.33 544.588 1142.1 572.162C1142.1 572.292 1142.07 572.422 1142.02 572.542C1141.97 572.662 1141.89 572.77 1141.8 572.861C1141.71 572.951 1141.59 573.022 1141.47 573.068C1141.35 573.114 1141.22 573.135 1141.09 573.13Z"
        fill="#263238" />
    <path
        d="M1081.18 646.674L1096.24 661.39C1096.24 661.39 1097.17 681.683 1124.4 685.13C1151.62 688.577 1211.42 640.284 1235.12 652.173L1240.46 640.323L1227.06 630.718C1227.06 630.718 1209.1 625.374 1187.25 641.058C1165.41 656.743 1126.1 694.696 1100.74 660.422L1108.48 646.48L1106.82 642.414L1100.85 648.533L1089.62 650.856L1086.33 643.576L1081.18 646.674Z"
        fill="#1971C2" />
    <path
        d="M1110.92 612.361C1111.97 616.892 1111.66 626.226 1097.1 637.34L1092.84 645.086L1088.96 638.425C1081.22 635.172 1084.28 621.849 1081.45 622.74L1068.09 639.432C1070.02 647.73 1072.67 655.843 1076.03 663.675L1088.85 644.737L1092.95 648.339L1097.68 642.491L1113.17 652.173C1113.17 652.173 1132.14 633.003 1130.09 614.375L1112.82 610.27C1112.54 610.23 1112.26 610.259 1112 610.353C1111.74 610.448 1111.5 610.605 1111.31 610.812C1111.13 611.018 1110.99 611.267 1110.92 611.537C1110.86 611.808 1110.85 612.09 1110.92 612.361Z"
        fill="#263238" />
    <path opacity="0.2"
        d="M1110.92 612.361C1111.97 616.892 1111.66 626.226 1097.1 637.34L1092.84 645.086L1088.96 638.425C1081.22 635.172 1084.28 621.849 1081.45 622.74L1068.09 639.432C1070.02 647.73 1072.67 655.843 1076.03 663.675L1088.85 644.737L1092.95 648.339L1097.68 642.491L1113.17 652.173C1113.17 652.173 1132.14 633.003 1130.09 614.375L1112.82 610.27C1112.54 610.23 1112.26 610.259 1112 610.353C1111.74 610.448 1111.5 610.605 1111.31 610.812C1111.13 611.018 1110.99 611.267 1110.92 611.537C1110.86 611.808 1110.85 612.09 1110.92 612.361Z"
        fill="white" />
    <path d="M1096.24 769.053L1117.54 789.656L1111.08 792.832L1089.47 775.133L1096.24 769.053Z" fill="#263238" />
    <path opacity="0.2" d="M1096.24 769.053L1117.54 789.656L1111.08 792.832L1089.47 775.133L1096.24 769.053Z"
        fill="white" />
    <path d="M931.922 719.598L935.175 746.939L928.088 745.545L921.621 722.27L931.922 719.598Z" fill="#263238" />
    <path opacity="0.2" d="M931.922 719.598L935.175 746.939L928.088 745.545L921.621 722.27L931.922 719.598Z"
        fill="white" />
    <path
        d="M1026.77 211.338V433.479C1021.28 438.006 1015.36 441.988 1009.11 445.368C966.506 468.411 923.906 451.41 881.305 433.982C832.044 413.844 782.744 393.163 733.482 433.479V211.338C776.083 176.483 818.257 187.094 860.664 203.592C908.724 222.22 956.824 248.555 1004.88 225.357C1012.72 221.59 1020.07 216.883 1026.77 211.338Z"
        fill="#1971C2" />
    <g opacity="0.6">
        <path
            d="M887.618 392.66V413.689L874.799 408.461V387.625C860.047 380.625 846.992 370.503 836.536 357.96C838.86 352.344 841.222 346.768 843.546 341.23C852.06 351.985 862.699 360.871 874.799 367.332V329.766C857.449 317.412 838.86 304.439 838.86 278.491C838.86 259.398 850.478 245.921 874.799 253.163V231.979L887.618 237.246V258.082C899.535 263.802 910.289 271.681 919.336 281.318C917.206 286.972 915.037 292.549 912.907 298.165C905.557 290.272 897.026 283.57 887.618 278.297V316.25C904.968 328.643 923.867 341.307 923.867 367.216C923.867 386.347 912.132 399.902 887.618 392.66ZM874.799 306.956V273.65C863.723 271.172 859.037 276.206 859.037 284.455C858.959 293.479 865.737 300.178 874.799 306.956ZM903.845 361.949C903.845 352.77 896.99 345.838 887.618 338.712V371.941C899.004 374.768 903.845 370.12 903.845 362.065V361.949Z"
            fill="white" />
    </g>
    <path
        d="M734.141 572.123C732.518 572.123 730.961 571.479 729.814 570.331C728.666 569.184 728.022 567.627 728.022 566.004V200.687C728.022 199.061 728.665 197.501 729.812 196.347C730.958 195.193 732.514 194.54 734.141 194.53C735.767 194.54 737.323 195.193 738.47 196.347C739.616 197.501 740.26 199.061 740.26 200.687V566.004C740.26 567.627 739.615 569.184 738.467 570.331C737.32 571.479 735.764 572.123 734.141 572.123Z"
        fill="#2E353A" />
    <path opacity="0.2"
        d="M1009.11 445.368C966.506 468.411 923.906 451.41 881.305 433.982C866.008 411.288 885.565 371.515 880.027 322.408C874.141 269.777 849.045 231.553 860.664 203.553C908.724 222.181 956.824 248.516 1004.88 225.318C984.669 314.701 1018.59 313.733 1009.11 445.368Z"
        fill="black" />
    <path
        d="M1308.2 1240.56C1308.2 1240.56 1293.95 1239.79 1292.51 1200.83C1291.08 1161.87 1316.22 1151.45 1335.54 1156.21C1335.54 1156.21 1332.71 1128.48 1345.22 1129.49C1357.73 1130.5 1356.84 1149.05 1356.84 1149.05C1356.84 1149.05 1361.1 1109.7 1378.18 1109.7C1395.26 1109.7 1378.18 1156.17 1378.18 1156.17C1378.18 1156.17 1401.84 1144.83 1410.52 1156.17C1419.19 1167.52 1399.63 1180.84 1399.63 1180.84C1399.63 1180.84 1430.31 1190.83 1417.49 1222.63C1417.49 1222.63 1438.87 1225.96 1444.83 1240.17C1444.83 1240.17 1443.13 1211.48 1450.79 1213.41C1458.46 1215.35 1456.8 1240.52 1456.8 1240.52C1456.8 1240.52 1469.62 1212.83 1480.73 1222.63C1491.84 1232.43 1475.58 1255.82 1475.58 1255.82C1475.58 1255.82 1496.96 1245.48 1500.36 1259.19C1503.77 1272.9 1488.4 1278.09 1488.4 1278.09C1488.4 1278.09 1510.63 1272.94 1510.63 1298.42C1510.63 1298.42 1553.23 1294.55 1563.61 1317.24H1309.01L1308.2 1240.56Z"
        fill="#263238" />
    <path opacity="0.3"
        d="M1308.2 1240.56C1308.2 1240.56 1293.95 1239.79 1292.51 1200.83C1291.08 1161.87 1316.22 1151.45 1335.54 1156.21C1335.54 1156.21 1332.71 1128.48 1345.22 1129.49C1357.73 1130.5 1356.84 1149.05 1356.84 1149.05C1356.84 1149.05 1361.1 1109.7 1378.18 1109.7C1395.26 1109.7 1378.18 1156.17 1378.18 1156.17C1378.18 1156.17 1401.84 1144.83 1410.52 1156.17C1419.19 1167.52 1399.63 1180.84 1399.63 1180.84C1399.63 1180.84 1430.31 1190.83 1417.49 1222.63C1417.49 1222.63 1438.87 1225.96 1444.83 1240.17C1444.83 1240.17 1443.13 1211.48 1450.79 1213.41C1458.46 1215.35 1456.8 1240.52 1456.8 1240.52C1456.8 1240.52 1469.62 1212.83 1480.73 1222.63C1491.84 1232.43 1475.58 1255.82 1475.58 1255.82C1475.58 1255.82 1496.96 1245.48 1500.36 1259.19C1503.77 1272.9 1488.4 1278.09 1488.4 1278.09C1488.4 1278.09 1510.63 1272.94 1510.63 1298.42C1510.63 1298.42 1553.23 1294.55 1563.61 1317.24H1309.01L1308.2 1240.56Z"
        fill="white" />
    <path
        d="M1411.91 1317.28L1286.71 1010.56H1205.53L1141.59 890.619L984.669 858.242L914.882 743.725H833.515L798.622 498.967L685.266 504.582L647.507 654.884L571.911 661.003L470.019 953.938L360.226 987.476L284.165 1117.52L178.671 1126.62L95.2523 1317.28H1411.91Z"
        fill="#2E353A" />
    <path opacity="0.4"
        d="M1411.91 1317.28L1286.71 1010.56H1205.53L1141.59 890.619L984.669 858.242L914.882 743.725H833.515L798.622 498.967L685.266 504.582L647.507 654.884L571.911 661.003L470.019 953.938L360.226 987.476L284.165 1117.52L178.671 1126.62L95.2523 1317.28H1411.91Z"
        fill="white" />
    <path opacity="0.2"
        d="M571.911 661.003L685.266 689.584L712.414 996.926L807.374 1021.67L843.701 1317.28H708.542L650.412 996.926L470.019 953.938L571.911 661.003Z"
        fill="white" />
    <path opacity="0.2"
        d="M360.226 987.476L603.9 1004.56L615.518 1317.28H485.975L454.063 1137.86L373.316 1128.68L326.804 1254.77V1128.68L284.165 1117.52L360.226 987.476Z"
        fill="white" />
    <path opacity="0.2" d="M178.671 1126.62L284.165 1147.07L293.886 1317.28H95.2523L178.671 1126.62Z" fill="white" />
    <path opacity="0.2"
        d="M685.266 504.582V661.003L725.969 678.74L739.524 975.587L807.374 987.476L791.845 746.049L833.515 743.725L798.622 498.967L685.266 504.582Z"
        fill="white" />
    <path opacity="0.2"
        d="M914.882 743.725L833.515 777.418L843.701 987.476L977.853 1014.39L942.998 879.078L984.669 858.242L914.882 743.725Z"
        fill="white" />
    <path opacity="0.2"
        d="M1141.59 890.619L984.669 908.123L1015.77 1014.39L1130.94 1047.89L1187.83 1317.28L1154.8 1075.5L1205.53 1010.56L1141.59 890.619Z"
        fill="white" />
    <path opacity="0.2"
        d="M1095.2 1057.11C1092.29 1055.25 958.605 1038.71 958.605 1038.71L859.773 1053.04V1317.28H1154.92L1095.2 1057.11Z"
        fill="white" />
    <path opacity="0.2" d="M435.319 1156.25L374.284 1149.09L333.582 1317.28H449.842L435.319 1156.25Z" fill="white" />
    <path opacity="0.2" d="M1286.71 1010.56L1187.83 1075.5L1218.16 1317.28H1411.91L1286.71 1010.56Z" fill="white" />
    <path
        d="M68.0269 1317.28H157.333C160.049 1314.53 162.524 1311.55 164.73 1308.37C164.73 1308.37 133.476 1193.78 108.071 1157.33C82.6659 1120.89 123.562 1239.36 123.562 1239.36C123.562 1239.36 87.8167 1164.07 76.6632 1166.47C67.0587 1168.53 101.216 1229.14 110.898 1245.94C102.378 1231.58 74.3783 1186.77 60.9398 1195.6C44.9453 1206.25 107.413 1273.25 107.413 1273.25C107.413 1273.25 51.2579 1231.15 45.4488 1242.88C39.6396 1254.62 99.6673 1291.99 99.6673 1291.99C99.6673 1291.99 42.5442 1280.37 36.5802 1300.55C33.7531 1311.86 51.529 1315.89 68.0269 1317.28Z"
        fill="#1971C2" />
    <path opacity="0.2"
        d="M68.0269 1317.28H157.333C160.049 1314.53 162.524 1311.55 164.73 1308.37C164.73 1308.37 133.476 1193.78 108.071 1157.33C82.6659 1120.89 123.562 1239.36 123.562 1239.36C123.562 1239.36 87.8167 1164.07 76.6632 1166.47C67.0587 1168.53 101.216 1229.14 110.898 1245.94C102.378 1231.58 74.3783 1186.77 60.9398 1195.6C44.9453 1206.25 107.413 1273.25 107.413 1273.25C107.413 1273.25 51.2579 1231.15 45.4488 1242.88C39.6396 1254.62 99.6673 1291.99 99.6673 1291.99C99.6673 1291.99 42.5442 1280.37 36.5802 1300.55C33.7531 1311.86 51.529 1315.89 68.0269 1317.28Z"
        fill="white" />
    <path
        d="M163.335 1300.01C162.991 1300.01 162.651 1299.92 162.352 1299.75C162.052 1299.58 161.804 1299.34 161.631 1299.04C161.012 1297.88 97.4211 1183.4 26.5884 1149.01C26.3592 1148.9 26.1543 1148.74 25.9855 1148.55C25.8166 1148.36 25.687 1148.14 25.6043 1147.9C25.5215 1147.66 25.4872 1147.4 25.5032 1147.15C25.5192 1146.89 25.5853 1146.64 25.6977 1146.41C25.9305 1145.96 26.3312 1145.61 26.8152 1145.44C27.2992 1145.28 27.8288 1145.31 28.2924 1145.52C100.209 1180.38 164.381 1295.98 165.039 1297.14C165.277 1297.6 165.329 1298.12 165.184 1298.61C165.04 1299.11 164.71 1299.52 164.265 1299.77C163.978 1299.92 163.659 1300 163.335 1300.01Z"
        fill="#1971C2" />
    <path
        d="M20.3146 1149.67C20.7901 1151.07 21.6721 1152.31 22.8491 1153.22C24.0261 1154.12 25.4453 1154.66 26.9273 1154.76C28.4094 1154.86 29.8878 1154.52 31.1757 1153.78C32.4636 1153.04 33.5032 1151.93 34.1632 1150.6C34.8232 1149.27 35.0739 1147.77 34.8836 1146.3C34.6933 1144.83 34.0706 1143.44 33.0942 1142.32C32.1178 1141.2 30.8314 1140.4 29.3978 1140.01C27.9641 1139.62 26.4474 1139.67 25.0393 1140.14C24.103 1140.45 23.238 1140.95 22.4936 1141.6C21.7493 1142.25 21.1403 1143.04 20.7015 1143.92C20.2626 1144.81 20.0026 1145.77 19.9362 1146.76C19.8698 1147.74 19.9984 1148.73 20.3146 1149.67Z"
        fill="#1971C2" />
    <path
        d="M62.5663 1199.43C62.8359 1200.23 63.2605 1200.97 63.8161 1201.61C64.3717 1202.25 65.0472 1202.77 65.8042 1203.14C66.5612 1203.52 67.3848 1203.74 68.228 1203.8C69.0712 1203.86 69.9174 1203.75 70.7185 1203.48C71.5195 1203.21 72.2595 1202.78 72.8964 1202.23C73.5333 1201.67 74.0546 1201 74.4304 1200.24C74.8062 1199.48 75.0292 1198.66 75.0867 1197.82C75.1442 1196.97 75.035 1196.13 74.7655 1195.33C74.2211 1193.71 73.0564 1192.37 71.5276 1191.61C69.9988 1190.86 68.2311 1190.74 66.6133 1191.28C64.9956 1191.82 63.6604 1192.99 62.9015 1194.52C62.1425 1196.05 62.0219 1197.81 62.5663 1199.43Z"
        fill="#1971C2" />
    <path
        d="M83.6341 1172.63C84.0499 1173.84 84.8156 1174.9 85.8336 1175.67C86.8516 1176.44 88.0759 1176.89 89.3504 1176.96C90.6249 1177.03 91.8919 1176.72 92.99 1176.07C94.0882 1175.42 94.9677 1174.45 95.5165 1173.3C96.0653 1172.15 96.2586 1170.86 96.0717 1169.6C95.8848 1168.33 95.3263 1167.16 94.4671 1166.21C93.608 1165.27 92.4873 1164.6 91.2477 1164.3C90.0082 1163.99 88.7059 1164.06 87.5068 1164.5C85.9245 1165.08 84.6322 1166.25 83.9079 1167.77C83.1837 1169.3 83.0854 1171.04 83.6341 1172.63Z"
        fill="#1971C2" />
    <path
        d="M78.1347 1218.8C78.5431 1220 79.2982 1221.05 80.3047 1221.83C81.3113 1222.6 82.5242 1223.06 83.7907 1223.14C85.0572 1223.23 86.3205 1222.93 87.4214 1222.3C88.5224 1221.67 89.4116 1220.73 89.9771 1219.59C90.5426 1218.46 90.7591 1217.18 90.5991 1215.92C90.4392 1214.66 89.9102 1213.47 89.0786 1212.52C88.247 1211.56 87.1501 1210.87 85.9262 1210.53C84.7022 1210.19 83.4061 1210.23 82.2011 1210.62C80.5866 1211.18 79.2553 1212.35 78.4946 1213.88C77.7339 1215.41 77.6046 1217.17 78.1347 1218.8Z"
        fill="#1971C2" />
    <path
        d="M111.847 1204.49C115.041 1202.94 116.375 1199.09 114.826 1195.9C113.277 1192.7 109.431 1191.37 106.236 1192.92C103.042 1194.47 101.708 1198.31 103.257 1201.51C104.806 1204.7 108.652 1206.04 111.847 1204.49Z"
        fill="#1971C2" />
    <path
        d="M51.2192 1147.34C51.635 1148.55 52.4007 1149.61 53.4187 1150.38C54.4367 1151.15 55.661 1151.6 56.9355 1151.67C58.21 1151.74 59.477 1151.43 60.5751 1150.78C61.6733 1150.13 62.5528 1149.17 63.1016 1148.01C63.6504 1146.86 63.8437 1145.57 63.6568 1144.31C63.4699 1143.05 62.9114 1141.87 62.0523 1140.92C61.1931 1139.98 60.0724 1139.31 58.8328 1139.01C57.5933 1138.7 56.291 1138.77 55.0919 1139.21C53.5158 1139.8 52.2299 1140.97 51.5069 1142.49C50.7839 1144.01 50.6807 1145.75 51.2192 1147.34Z"
        fill="#1971C2" />
    <path
        d="M37.4709 1179.02C36.9898 1179.01 36.5289 1178.83 36.1781 1178.5C35.8273 1178.17 35.6116 1177.72 35.5732 1177.24C35.5466 1176.99 35.5709 1176.73 35.6446 1176.49C35.7184 1176.25 35.8401 1176.02 36.0026 1175.83C36.1651 1175.63 36.365 1175.47 36.5906 1175.36C36.8162 1175.24 37.0629 1175.17 37.316 1175.15L64.4252 1172.9L55.2856 1145.79C55.2042 1145.54 55.1737 1145.27 55.1958 1145.01C55.218 1144.74 55.2923 1144.48 55.4146 1144.24C55.6615 1143.76 56.0887 1143.4 56.6023 1143.24C57.1158 1143.07 57.6736 1143.12 58.153 1143.37C58.6323 1143.61 58.994 1144.04 59.1583 1144.56L69.8858 1176.39L37.6645 1179.06L37.4709 1179.02Z"
        fill="#1971C2" />
    <path
        d="M68.9176 1200.52C68.404 1200.54 67.9013 1200.36 67.52 1200.02C67.1387 1199.67 66.9101 1199.19 66.8844 1198.68C66.8587 1198.16 67.0381 1197.66 67.3831 1197.28C67.7281 1196.9 68.2104 1196.67 68.7239 1196.64L87.5843 1194.67V1170.58C87.5843 1170.07 87.7883 1169.57 88.1514 1169.21C88.5145 1168.85 89.0071 1168.64 89.5206 1168.64C89.7778 1168.63 90.0345 1168.68 90.2744 1168.77C90.5143 1168.86 90.7322 1169 90.9142 1169.19C91.0963 1169.37 91.2385 1169.59 91.3319 1169.83C91.4254 1170.07 91.468 1170.32 91.457 1170.58V1198.15L69.1112 1200.52H68.9176Z"
        fill="#1971C2" />
    <path
        d="M110.588 1220.27L84.1375 1218.64C83.8832 1218.63 83.6344 1218.56 83.4054 1218.45C83.1763 1218.34 82.9714 1218.18 82.8023 1217.99C82.6333 1217.8 82.5035 1217.58 82.4203 1217.34C82.337 1217.1 82.3021 1216.84 82.3173 1216.59C82.3326 1216.33 82.3978 1216.09 82.5092 1215.86C82.6206 1215.63 82.776 1215.42 82.9666 1215.25C83.1572 1215.08 83.3792 1214.95 83.62 1214.87C83.8608 1214.79 84.1156 1214.75 84.3699 1214.77L106.793 1216.12L107.18 1198.54C107.2 1198.03 107.417 1197.55 107.786 1197.19C108.154 1196.84 108.645 1196.64 109.156 1196.64C109.41 1196.65 109.661 1196.7 109.894 1196.81C110.127 1196.91 110.337 1197.05 110.514 1197.24C110.69 1197.42 110.828 1197.64 110.921 1197.87C111.013 1198.11 111.058 1198.36 111.053 1198.62L110.588 1220.27Z"
        fill="#1971C2" />
    <path
        d="M30.1901 1179.29C30.6059 1180.5 31.3716 1181.56 32.3897 1182.33C33.4077 1183.1 34.6319 1183.55 35.9064 1183.62C37.1809 1183.69 38.448 1183.38 39.5461 1182.73C40.6442 1182.08 41.5237 1181.12 42.0725 1179.96C42.6214 1178.81 42.8146 1177.52 42.6278 1176.26C42.4409 1175 41.8823 1173.82 41.0232 1172.87C40.1641 1171.93 39.0433 1171.26 37.8038 1170.96C36.5642 1170.65 35.2619 1170.72 34.0629 1171.16C32.4805 1171.74 31.1882 1172.91 30.464 1174.44C29.7397 1175.96 29.6414 1177.7 30.1901 1179.29Z"
        fill="#1971C2" />
    <path
        d="M118.45 1317.28C117.952 1315.89 117.538 1314.46 117.211 1313.02C117.211 1313.02 92.1542 1313.99 90.1016 1306.75C88.0491 1299.5 117.211 1291.95 117.211 1291.95C117.211 1291.95 81.5041 1273.63 88.5913 1265.11C95.6784 1256.59 123.136 1273.67 123.136 1273.67C123.136 1273.67 91.0698 1236.42 98.8541 1228.67C106.638 1220.93 133.709 1254.7 133.709 1254.7C133.709 1254.7 107.142 1198.39 117.327 1196.14C127.512 1193.89 150.246 1250.36 150.246 1250.36C150.246 1250.36 140.06 1176 150.246 1174.72C160.431 1173.45 165.737 1258.53 165.737 1258.53C165.737 1258.53 169.609 1178.13 177.781 1182.59C185.952 1187.04 177.781 1271 177.781 1271C177.781 1271 193.039 1199.39 201.366 1207.49C209.692 1215.58 186.611 1289.36 186.611 1289.36C186.611 1289.36 199.429 1256.75 205.471 1266.86C209.344 1273.36 198.306 1299.58 189.98 1317.4L118.45 1317.28Z"
        fill="#1971C2" />
    <path opacity="0.4"
        d="M118.45 1317.28C117.952 1315.89 117.538 1314.46 117.211 1313.02C117.211 1313.02 92.1542 1313.99 90.1016 1306.75C88.0491 1299.5 117.211 1291.95 117.211 1291.95C117.211 1291.95 81.5041 1273.63 88.5913 1265.11C95.6784 1256.59 123.136 1273.67 123.136 1273.67C123.136 1273.67 91.0698 1236.42 98.8541 1228.67C106.638 1220.93 133.709 1254.7 133.709 1254.7C133.709 1254.7 107.142 1198.39 117.327 1196.14C127.512 1193.89 150.246 1250.36 150.246 1250.36C150.246 1250.36 140.06 1176 150.246 1174.72C160.431 1173.45 165.737 1258.53 165.737 1258.53C165.737 1258.53 169.609 1178.13 177.781 1182.59C185.952 1187.04 177.781 1271 177.781 1271C177.781 1271 193.039 1199.39 201.366 1207.49C209.692 1215.58 186.611 1289.36 186.611 1289.36C186.611 1289.36 199.429 1256.75 205.471 1266.86C209.344 1273.36 198.306 1299.58 189.98 1317.4L118.45 1317.28Z"
        fill="white" />
    <path
        d="M1397.27 1315.58C1397.27 1315.58 1416.05 1269.72 1413 1260.27C1409.94 1250.82 1395.76 1284.4 1395.76 1284.4C1395.76 1284.4 1403.51 1205.86 1391.19 1200.59C1378.88 1195.33 1382.25 1267.94 1382.25 1267.94C1382.25 1267.94 1362.53 1159.5 1343.75 1161.48C1324.97 1163.45 1366.68 1269.26 1366.68 1269.26C1366.68 1269.26 1340.5 1220.23 1328.14 1226.43C1315.79 1232.62 1356.76 1282.04 1356.76 1282.04C1356.76 1282.04 1335.7 1267.94 1332.75 1275.61C1329.81 1283.28 1372.64 1311.01 1397.27 1315.58Z"
        fill="#263238" />
    <path opacity="0.2"
        d="M1397.27 1315.58C1397.27 1315.58 1416.05 1269.72 1413 1260.27C1409.94 1250.82 1395.76 1284.4 1395.76 1284.4C1395.76 1284.4 1403.51 1205.86 1391.19 1200.59C1378.88 1195.33 1382.25 1267.94 1382.25 1267.94C1382.25 1267.94 1362.53 1159.5 1343.75 1161.48C1324.97 1163.45 1366.68 1269.26 1366.68 1269.26C1366.68 1269.26 1340.5 1220.23 1328.14 1226.43C1315.79 1232.62 1356.76 1282.04 1356.76 1282.04C1356.76 1282.04 1335.7 1267.94 1332.75 1275.61C1329.81 1283.28 1372.64 1311.01 1397.27 1315.58Z"
        fill="white" />
    <path
        d="M1397.27 1315.58C1397.27 1315.58 1442.23 1319.87 1448.7 1314.84C1455.17 1309.81 1425.16 1308.3 1425.16 1308.3C1425.16 1308.3 1488.13 1292.18 1488.67 1281.19C1489.21 1270.19 1434.06 1293.31 1434.06 1293.31C1434.06 1293.31 1512.49 1247.38 1505.55 1233.47C1498.62 1219.57 1428.68 1281.61 1428.68 1281.61C1428.68 1281.61 1459.2 1247.53 1450.91 1239.71C1442.62 1231.89 1416.06 1277.55 1416.06 1277.55C1416.06 1277.55 1421.01 1257.29 1414.23 1257.17C1407.46 1257.06 1393.94 1295.13 1397.27 1315.58Z"
        fill="#263238" />
    <path opacity="0.2"
        d="M1397.27 1315.58C1397.27 1315.58 1442.23 1319.87 1448.7 1314.84C1455.17 1309.81 1425.16 1308.3 1425.16 1308.3C1425.16 1308.3 1488.13 1292.18 1488.67 1281.19C1489.21 1270.19 1434.06 1293.31 1434.06 1293.31C1434.06 1293.31 1512.49 1247.38 1505.55 1233.47C1498.62 1219.57 1428.68 1281.61 1428.68 1281.61C1428.68 1281.61 1459.2 1247.53 1450.91 1239.71C1442.62 1231.89 1416.06 1277.55 1416.06 1277.55C1416.06 1277.55 1421.01 1257.29 1414.23 1257.17C1407.46 1257.06 1393.94 1295.13 1397.27 1315.58Z"
        fill="white" />
    <path
        d="M1397.27 1315.58C1397.27 1315.58 1458.27 1283.39 1461.52 1272.98C1464.77 1262.56 1430.54 1283.82 1430.54 1283.82C1430.54 1283.82 1487.74 1217.71 1479.84 1205.05C1471.94 1192.38 1428.8 1260.31 1428.8 1260.31C1428.8 1260.31 1480.23 1149.43 1461.87 1139.37C1443.51 1129.3 1413.89 1251.68 1413.89 1251.68C1413.89 1251.68 1421.44 1190.56 1406.14 1188.32C1390.84 1186.07 1396.58 1256.9 1396.58 1256.9C1396.58 1256.9 1386.51 1230.72 1378.95 1235.8C1371.4 1240.87 1377.91 1295.63 1397.27 1315.58Z"
        fill="#263238" />
    <path opacity="0.4"
        d="M1397.27 1315.58C1397.27 1315.58 1458.27 1283.39 1461.52 1272.98C1464.77 1262.56 1430.54 1283.82 1430.54 1283.82C1430.54 1283.82 1487.74 1217.71 1479.84 1205.05C1471.94 1192.38 1428.8 1260.31 1428.8 1260.31C1428.8 1260.31 1480.23 1149.43 1461.87 1139.37C1443.51 1129.3 1413.89 1251.68 1413.89 1251.68C1413.89 1251.68 1421.44 1190.56 1406.14 1188.32C1390.84 1186.07 1396.58 1256.9 1396.58 1256.9C1396.58 1256.9 1386.51 1230.72 1378.95 1235.8C1371.4 1240.87 1377.91 1295.63 1397.27 1315.58Z"
        fill="white" />
    <path
        d="M722.019 995.493L823.717 1015.67L833.515 1100.87L840.177 1012.42L860.276 995.648C860.276 995.648 832.741 953.512 821.006 958.856C805.748 965.827 794.439 927.642 777.515 936.704C771.551 939.88 774.495 950.065 770.738 954.209C764.542 960.987 756.641 959.67 749.167 963.388C734.489 970.552 729.261 980.234 722.019 995.493Z"
        fill="#263238" />
    <path
        d="M845.173 983.72C845.173 983.72 836.11 931.05 842.384 923.343C848.658 915.637 849.742 952.079 849.742 952.079C849.742 952.079 870.81 875.98 884.287 875.592C897.765 875.205 868.254 941.429 868.254 941.429C868.254 941.429 925.881 847.321 942.611 856.229C959.341 865.136 882.196 948.439 882.196 948.439C882.196 948.439 924.332 912.19 933.626 922.414C942.921 932.638 886.843 963.969 886.843 963.969C886.843 963.969 911.551 958.392 911.551 966.641C911.551 974.89 869.919 988.561 845.173 983.72Z"
        fill="#1971C2" />
    <path opacity="0.2"
        d="M845.173 983.72C845.173 983.72 836.11 931.05 842.384 923.343C848.658 915.637 849.742 952.079 849.742 952.079C849.742 952.079 870.81 875.98 884.287 875.592C897.765 875.205 868.254 941.429 868.254 941.429C868.254 941.429 925.881 847.321 942.611 856.229C959.341 865.136 882.196 948.439 882.196 948.439C882.196 948.439 924.332 912.19 933.626 922.414C942.921 932.638 886.843 963.969 886.843 963.969C886.843 963.969 911.551 958.392 911.551 966.641C911.551 974.89 869.919 988.561 845.173 983.72Z"
        fill="white" />
    <path
        d="M836.885 976.206C836.885 976.206 793.587 968.461 789.405 961.335C785.222 954.209 813.687 963.736 813.687 963.736C813.687 963.736 760.785 925.977 764.309 915.443C767.834 904.909 810.782 946.425 810.782 946.425C810.782 946.425 754.24 875.282 765.742 864.826C777.244 854.37 819.961 937.479 819.961 937.479C819.961 937.479 803.811 894.646 814.345 890.386C824.879 886.126 833.399 938.215 833.399 938.215C833.399 938.215 836.072 917.496 842.423 919.858C848.774 922.22 847.341 958.392 836.885 976.206Z"
        fill="#1971C2" />
    <path opacity="0.2"
        d="M836.885 976.206C836.885 976.206 793.587 968.461 789.405 961.335C785.222 954.209 813.687 963.736 813.687 963.736C813.687 963.736 760.785 925.977 764.309 915.443C767.834 904.909 810.782 946.425 810.782 946.425C810.782 946.425 754.24 875.282 765.742 864.826C777.244 854.37 819.961 937.479 819.961 937.479C819.961 937.479 803.811 894.646 814.345 890.386C824.879 886.126 833.399 938.215 833.399 938.215C833.399 938.215 836.072 917.496 842.423 919.858C848.774 922.22 847.341 958.392 836.885 976.206Z"
        fill="white" />
    <path
        d="M833.632 970.436C833.632 970.436 791.845 928.572 792.58 917.573C793.316 906.574 817.56 938.912 817.56 938.912C817.56 938.912 788.088 856.577 800.055 847.631C812.022 838.685 827.668 917.573 827.668 917.573C827.668 917.573 819.922 795.62 840.486 792.909C861.051 790.198 844.746 914.823 844.746 914.823C844.746 914.823 859.773 855.144 874.683 858.475C889.593 861.805 858.959 925.899 858.959 925.899C858.959 925.899 877.781 905.103 883.009 912.577C888.237 920.052 858.959 958.895 833.632 970.436Z"
        fill="#1971C2" />
    <path opacity="0.4"
        d="M833.632 970.436C833.632 970.436 791.845 928.572 792.58 917.573C793.316 906.574 817.56 938.912 817.56 938.912C817.56 938.912 788.088 856.577 800.055 847.631C812.022 838.685 827.668 917.573 827.668 917.573C827.668 917.573 819.922 795.62 840.486 792.909C861.051 790.198 844.746 914.823 844.746 914.823C844.746 914.823 859.773 855.144 874.683 858.475C889.593 861.805 858.959 925.899 858.959 925.899C858.959 925.899 877.781 905.103 883.009 912.577C888.237 920.052 858.959 958.895 833.632 970.436Z"
        fill="white" />
    <path
        d="M791.147 1009.32L840.177 1018.77L909.073 1010.56C909.073 1010.56 876.852 971.443 867.518 975.703C855.319 981.241 846.334 950.84 832.857 958.043C828.094 960.599 830.417 968.732 827.435 971.985C822.478 977.407 816.204 976.361 810.24 979.343C798.545 985.153 796.995 997.158 791.147 1009.32Z"
        fill="#263238" />
    <path opacity="0.2"
        d="M791.147 1009.32L823.717 1015.67L833.515 1100.87L840.177 1018.92L909.073 1010.71C909.073 1010.71 876.852 971.598 867.518 975.858C855.319 981.396 846.334 950.995 832.857 958.198C828.094 960.754 830.417 968.887 827.435 972.14C822.478 977.562 816.204 976.516 810.24 979.498C798.545 985.153 796.995 997.158 791.147 1009.32Z"
        fill="white" />
    <path
        d="M444.575 669.601L459.33 683.542L469.903 685.75L485.045 700.079C485.045 700.079 477.919 710.729 470.522 707.825C463.125 704.92 455.031 693.108 455.031 693.108L436.829 677.617L444.575 669.601Z"
        fill="#EBB376" />
    <path
        d="M455.496 677.849L446.743 688.538C446.743 688.538 438.727 681.722 428.58 672.273C413.089 657.866 392.486 637.418 387.723 625.8C379.977 606.436 386.561 548.112 386.561 548.112L421.067 547.919C419.983 569.683 405.344 595.708 404.802 612.555C404.492 622.934 423.856 645.357 438.766 661.003C447.983 670.724 455.496 677.849 455.496 677.849Z"
        fill="#1971C2" />
    <path d="M454.295 670.995L459.214 678.624L447.867 690.591L439.501 686.602L454.295 670.995Z" fill="#1971C2" />
    <path opacity="0.6" d="M454.295 670.995L459.214 678.624L447.867 690.591L439.501 686.602L454.295 670.995Z"
        fill="white" />
    <path opacity="0.2"
        d="M438.766 661.003C435.78 665.111 432.366 668.889 428.58 672.273C413.089 657.866 392.486 637.418 387.723 625.8C379.977 606.436 386.561 548.112 386.561 548.112L421.067 547.919C419.983 569.683 405.344 595.708 404.802 612.555C404.492 622.934 423.856 645.357 438.766 661.003Z"
        fill="black" />
    <path
        d="M583.994 652.367H604.287L613.504 646.713H634.34C634.34 646.713 636.47 659.338 629.189 662.397C621.908 665.457 607.734 662.397 607.734 662.397L583.994 663.753V652.367Z"
        fill="#EBB376" />
    <path
        d="M485.549 970.707C483.269 968.189 480.553 966.103 477.532 964.549C477.532 964.549 469.438 953.628 469.206 924.389L457.239 919.2C455.194 918.348 452.937 918.148 450.775 918.626C448.613 919.104 446.65 920.238 445.156 921.872C444.738 922.324 444.386 922.832 444.11 923.382C442.989 926.337 442.07 929.365 441.36 932.444C439.053 942.777 437.372 953.24 436.326 963.775L438.611 964.124L442.484 944.566C443.839 937.944 447.75 946.58 448.099 953.977C448.448 961.374 450.384 969.468 464.984 972.14C482.024 975.122 489.228 975.548 485.549 970.707Z"
        fill="#263238" />
    <path
        d="M472.265 876.754L450.306 917.805C450.306 917.805 459.136 964.278 477.416 964.549L468.431 920.632L493.217 885.352L472.265 876.754Z"
        fill="#EBB376" />
    <path
        d="M255.391 1140.72C253.335 1138.02 250.801 1135.73 247.916 1133.94C247.916 1133.94 240.752 1122.33 242.998 1093.2L231.38 1087.01C229.414 1086 227.187 1085.62 224.999 1085.92C222.811 1086.22 220.767 1087.18 219.142 1088.67C218.67 1089.08 218.265 1089.57 217.941 1090.1C216.593 1092.96 215.429 1095.89 214.456 1098.9C211.239 1108.99 208.652 1119.27 206.71 1129.68L208.918 1130.23L214.494 1111.09C216.392 1104.59 219.568 1113.5 219.297 1120.93C219.026 1128.37 220.265 1136.62 234.555 1140.29C251.518 1144.83 258.683 1145.87 255.391 1140.72Z"
        fill="#263238" />
    <path
        d="M236.259 1037.24L224.641 1085.07C224.641 1085.07 229.521 1132.28 247.878 1133.94L242.649 1089.25L256.553 1047.43L236.259 1037.24Z"
        fill="#EBB376" />
    <path
        d="M484.813 595.011C476.509 599.03 468.476 603.583 460.763 608.643C455.186 612.206 449.145 616.389 442.522 621.462C423.557 635.603 407.09 652.816 393.803 672.389L318.981 638.386C327.884 618.953 338.241 600.221 349.963 582.347C353.836 576.345 358.174 570.381 362.666 564.688L363.015 564.223C373.104 551.562 387.504 543.062 403.464 540.347C419.424 537.632 435.824 540.893 449.532 549.506C454.181 552.454 458.679 555.634 463.009 559.033C495.424 584.671 484.813 595.011 484.813 595.011Z"
        fill="#1971C2" />
    <path
        d="M482.644 909.363L457.587 902.043C457.587 902.043 514.594 792.328 505.261 781.988C494.959 770.37 373.587 776.76 373.587 776.76C365.648 796.123 356.896 817.617 347.833 839.653C304.11 945.96 253.222 1067.95 253.222 1067.95L229.405 1062.03L295.241 752.826C284.707 695.935 318.478 638.58 318.478 638.58L402.052 663.094L401.161 680.251C401.161 680.251 555.49 706.43 556.652 766.729C557.698 794.923 482.644 909.363 482.644 909.363Z"
        fill="#263238" />
    <path opacity="0.2"
        d="M373.742 776.605C365.803 795.968 357.051 817.462 347.988 839.498C344.47 815.866 335.826 793.29 322.661 773.352C316.637 766.359 310.169 759.762 303.297 753.6C318.207 759.41 327.695 753.252 327.695 753.252C314.489 724.516 324.752 694.696 324.752 694.696C325.294 756.892 373.742 776.605 373.742 776.605Z"
        fill="black" />
    <path d="M328.857 652.754L372.851 665.302L374.904 657.208L331.8 644.079L328.857 652.754Z" fill="black" />
    <path d="M328.857 643.15L317.471 639.703L312.63 648.145L325.294 651.747L328.857 643.15Z" fill="black" />
    <path d="M377.692 658.06L376.414 666.309L402.439 673.744L403.64 665.96L377.692 658.06Z" fill="black" />
    <path
        d="M483.302 580.14C497.515 596.715 504.757 625.683 515.911 638.231C527.064 650.779 597.626 650.818 597.626 650.818L598.594 664.566C598.594 664.566 531.518 668.09 512.619 659.57C493.72 651.05 458.401 603.957 458.401 603.957L483.302 580.14Z"
        fill="#1971C2" />
    <path d="M591.972 646.713L600.763 648.843V665.34L591.972 668.206V646.713Z" fill="#1971C2" />
    <path opacity="0.6" d="M591.972 646.713L600.763 648.843V665.34L591.972 668.206V646.713Z" fill="white" />
    <path opacity="0.2"
        d="M460.879 608.179V608.643C455.302 612.206 449.261 616.389 442.638 621.462C441.833 614.208 443.136 606.876 446.392 600.343C449.648 593.811 454.718 588.356 460.995 584.632C458.656 592.301 458.615 600.487 460.879 608.179Z"
        fill="black" />
    <path
        d="M503.325 513.49C503.325 515.271 502.86 516.743 501.93 516.859C501.001 516.975 500.149 515.542 499.994 513.8C499.839 512.057 500.459 510.547 501.388 510.469C502.318 510.392 503.17 511.747 503.325 513.49Z"
        fill="#263238" />
    <path d="M501.001 510.585L503.828 508.804C503.828 508.804 502.666 512.212 501.001 510.585Z" fill="#263238" />
    <path
        d="M499.529 518.408C501.139 521.685 503.142 524.754 505.493 527.548C504.832 528.418 503.943 529.088 502.925 529.485C501.906 529.881 500.798 529.988 499.723 529.794L499.529 518.408Z"
        fill="#D58745" />
    <path
        d="M455.806 547.725L456.503 548.267C459.977 550.854 463.924 552.735 468.121 553.805C480.243 556.555 488.492 554.851 493.875 549.352C501.388 541.103 503.208 526.541 502.046 508.997C501.848 502.019 500.541 495.117 498.174 488.549C498.157 488.447 498.157 488.342 498.174 488.239C498.174 488.007 498.174 487.697 497.864 487.504C496.368 483.796 493.968 480.522 490.884 477.979C487.8 475.436 484.128 473.704 480.204 472.942C476.794 472.199 473.315 471.822 469.825 471.819C435.396 471.625 429.51 528.322 455.806 547.725Z"
        fill="#EBB376" />
    <path opacity="0.2"
        d="M456.503 548.267C460.004 550.706 463.952 552.431 468.121 553.34C480.243 556.051 488.492 553.96 493.875 548.383C486.645 550.212 479.016 549.627 472.149 546.718C469.597 545.756 466.858 545.396 464.145 545.664C461.431 545.933 458.816 546.824 456.503 548.267Z"
        fill="black" />
    <path
        d="M498.019 488.317C498.383 495.456 496.609 502.541 492.925 508.667C489.241 514.793 483.815 519.681 477.338 522.707C477.338 522.707 467.695 547.647 453.327 548.073C433.731 548.654 416.342 520.964 423.003 492.422C431.64 455.553 487.407 452.3 498.019 488.317Z"
        fill="#263238" />
    <path
        d="M456.193 462.989C456.193 462.989 479.042 457.103 491.745 466.242C506.539 476.931 512.193 488.046 494.804 505.357C494.804 505.357 456.309 493.08 443.529 495.753C436.072 497.312 428.754 499.475 421.648 502.22C418.821 476.854 443.335 457.993 456.193 462.989Z"
        fill="#263238" />
    <path
        d="M492.597 504.466C492.365 504.478 492.135 504.427 491.93 504.318C491.725 504.208 491.554 504.046 491.435 503.847C491.333 503.694 491.262 503.523 491.226 503.343C491.191 503.163 491.191 502.978 491.227 502.798C491.263 502.618 491.334 502.447 491.436 502.295C491.538 502.142 491.67 502.012 491.822 501.91C493.356 501.09 495.058 500.632 496.797 500.571C498.536 500.511 500.265 500.85 501.853 501.562C502.026 501.622 502.184 501.717 502.32 501.84C502.455 501.963 502.564 502.112 502.64 502.279C502.716 502.445 502.757 502.625 502.762 502.808C502.766 502.991 502.734 503.173 502.666 503.343C502.606 503.516 502.511 503.675 502.388 503.81C502.265 503.945 502.115 504.054 501.949 504.13C501.782 504.206 501.602 504.248 501.419 504.252C501.237 504.257 501.055 504.224 500.885 504.156C499.712 503.593 498.429 503.301 497.128 503.301C495.828 503.301 494.544 503.593 493.371 504.156C493.139 504.316 492.875 504.422 492.597 504.466Z"
        fill="#263238" />
    <path
        d="M487.524 503.692C483.491 503.672 479.479 503.112 475.596 502.026C475.349 501.955 475.141 501.788 475.018 501.563C474.894 501.337 474.865 501.072 474.937 500.826C475.017 500.585 475.186 500.383 475.408 500.261C475.631 500.139 475.892 500.106 476.138 500.168C476.138 500.168 491.629 504.699 500.962 498.154C503.248 496.393 505.088 494.118 506.333 491.515C507.577 488.911 508.192 486.051 508.127 483.166C508.302 481.145 508 479.112 507.247 477.229C506.494 475.345 505.31 473.665 503.789 472.322C490.428 460.239 451.081 466.281 450.694 466.358C450.566 466.38 450.436 466.377 450.31 466.348C450.184 466.318 450.065 466.264 449.961 466.189C449.856 466.113 449.768 466.017 449.701 465.906C449.634 465.796 449.589 465.673 449.571 465.545C449.537 465.294 449.604 465.04 449.756 464.837C449.908 464.634 450.133 464.499 450.384 464.461C452.011 464.19 491.048 458.187 505.106 470.89C506.841 472.424 508.19 474.346 509.045 476.499C509.899 478.652 510.235 480.976 510.024 483.282C510.086 486.457 509.4 489.601 508.021 492.46C506.641 495.32 504.608 497.814 502.085 499.742C497.747 502.512 492.667 503.89 487.524 503.692Z"
        fill="#263238" />
    <path
        d="M526.174 536.455C525.947 536.447 525.73 536.365 525.554 536.223C521.449 532.815 510.063 533.434 497.012 534.132C492.765 534.418 488.51 533.717 484.58 532.085C480.649 530.452 477.15 527.931 474.356 524.721C474.264 524.634 474.19 524.529 474.139 524.412C474.089 524.296 474.063 524.17 474.063 524.043C474.063 523.916 474.089 523.79 474.139 523.674C474.19 523.557 474.264 523.452 474.356 523.365C474.537 523.188 474.781 523.089 475.034 523.089C475.287 523.089 475.531 523.188 475.712 523.365C478.358 526.285 481.623 528.579 485.267 530.08C488.911 531.58 492.844 532.25 496.779 532.04C510.838 531.304 521.952 530.685 526.638 534.558C526.804 534.681 526.926 534.855 526.985 535.053C527.045 535.251 527.04 535.463 526.971 535.657C526.902 535.852 526.772 536.02 526.601 536.135C526.429 536.251 526.225 536.309 526.019 536.3L526.174 536.455Z"
        fill="#263238" />
    <path
        d="M517.499 470.657C517.27 470.662 517.048 470.579 516.879 470.425C496.586 452.959 456.813 463.802 456.387 463.919C456.267 463.954 456.142 463.964 456.018 463.95C455.894 463.936 455.775 463.897 455.666 463.835C455.558 463.774 455.463 463.691 455.387 463.593C455.311 463.494 455.256 463.381 455.225 463.26C455.189 463.138 455.178 463.01 455.192 462.884C455.206 462.757 455.244 462.635 455.305 462.524C455.367 462.412 455.449 462.314 455.548 462.234C455.647 462.155 455.761 462.095 455.883 462.06C457.549 461.595 497.051 450.829 518.118 468.953C518.212 469.043 518.287 469.152 518.338 469.271C518.388 469.391 518.415 469.52 518.415 469.65C518.415 469.78 518.388 469.909 518.338 470.029C518.287 470.149 518.212 470.257 518.118 470.347C517.96 470.527 517.738 470.638 517.499 470.657Z"
        fill="#263238" />
    <path
        d="M463.474 462.989C463.474 462.989 423.623 453.23 414.716 502.956C405.808 552.682 459.369 582.696 488.802 581.689C518.235 580.682 543.795 563.874 549.41 568.948C549.41 568.948 546.351 562.286 529.504 564.843C529.504 564.843 550.34 563.293 552.199 550.01C552.199 550.01 522.882 560.66 511.612 555.083L523.463 554.502C523.463 554.502 516.221 542.381 488.608 533.706C486.849 533.3 485.199 532.518 483.772 531.412C482.345 530.307 481.175 528.905 480.342 527.303C479.51 525.701 479.036 523.938 478.952 522.135C478.868 520.331 479.176 518.531 479.856 516.859L463.474 462.989Z"
        fill="#263238" />
    <path
        d="M480.785 592.378C469.151 592.532 457.789 588.858 448.448 581.921C420.021 560.737 415.645 513.993 415.607 513.528C415.607 513.272 415.709 513.025 415.89 512.844C416.072 512.662 416.318 512.56 416.575 512.56C416.832 512.56 417.078 512.662 417.259 512.844C417.441 513.025 417.543 513.272 417.543 513.528C417.543 513.993 421.88 560.002 449.609 580.527C462.157 589.899 477.687 592.726 495.811 589.008C496.057 588.962 496.312 589.013 496.521 589.15C496.731 589.287 496.879 589.5 496.934 589.744C496.963 589.869 496.967 589.998 496.945 590.124C496.923 590.25 496.877 590.371 496.809 590.479C496.74 590.587 496.651 590.68 496.546 590.753C496.442 590.827 496.323 590.879 496.199 590.906C491.125 591.924 485.96 592.417 480.785 592.378Z"
        fill="#263238" />
    <path
        d="M488.802 515.775C488.802 511.902 485.742 505.744 479.933 506.635C474.124 507.526 470.638 522.397 485.471 525.65C487.601 526.115 488.879 523.559 488.802 515.775Z"
        fill="#EBB376" />
</svg>